<?xml version="1.0" standalone="no"?>
<!DOCTYPE svg PUBLIC "-//W3C//DTD SVG 20010904//EN"
 "http://www.w3.org/TR/2001/REC-SVG-20010904/DTD/svg10.dtd">
<svg version="1.0" xmlns="http://www.w3.org/2000/svg"
 width="1024.000000pt" height="1024.000000pt" viewBox="0 0 1024.000000 1024.000000"
 preserveAspectRatio="xMidYMid meet">

<g transform="translate(0.000000,1024.000000) scale(0.100000,-0.100000)"
fill="#000000" stroke="none">
<path d="M4745 9520 c-445 -44 -836 -138 -1225 -292 -715 -285 -1356 -776
-1825 -1399 -605 -804 -900 -1638 -922 -2612 -6 -245 -5 -258 13 -272 17 -13
17 -17 4 -27 -18 -15 -17 -47 5 -260 31 -297 92 -587 166 -793 18 -50 66 -155
107 -235 118 -227 121 -234 137 -296 8 -33 15 -101 15 -156 0 -61 5 -106 12
-119 10 -17 10 -23 1 -26 -10 -4 -13 -134 -13 -606 0 -671 -2 -643 70 -716 51
-50 80 -67 90 -52 5 9 10 10 14 2 4 -6 1 -11 -6 -11 -8 -1 -6 -6 5 -15 10 -7
51 -18 90 -24 290 -44 341 -58 552 -159 134 -64 143 -67 215 -67 78 0 86 3
210 70 53 28 76 35 123 35 65 0 93 -12 219 -94 164 -106 460 -255 703 -353
817 -329 1720 -397 2625 -197 990 218 1943 881 2528 1756 74 110 189 310 235
408 14 30 43 93 65 140 55 118 89 150 177 164 64 11 122 -7 169 -52 50 -48 75
-62 113 -62 51 0 93 51 93 113 0 65 -41 127 -151 229 l-102 95 46 139 c100
306 156 577 188 924 18 194 15 664 -5 865 -20 190 -73 503 -112 658 -130 517
-399 1083 -719 1512 -505 679 -1092 1149 -1820 1458 -375 160 -756 261 -1180
313 -142 18 -772 27 -910 14z m840 -214 c356 -38 586 -87 890 -189 264 -89
464 -181 746 -343 462 -264 847 -601 1206 -1056 72 -91 282 -405 356 -533 99
-172 230 -465 306 -690 64 -186 98 -314 140 -535 22 -112 45 -206 50 -208 6
-2 11 -11 11 -20 0 -15 -2 -15 -10 -2 -9 13 -11 13 -19 0 -7 -10 -6 -19 4 -30
21 -23 45 -324 45 -564 0 -352 -29 -644 -91 -926 -24 -108 -81 -320 -104 -387
-7 -22 -148 65 -172 106 -62 107 -213 289 -305 368 -124 106 -251 154 -470
178 -212 23 -242 30 -277 70 -17 19 -35 52 -42 74 l-12 40 62 67 c104 113 142
224 92 265 -23 19 -33 22 -165 53 -77 18 -197 70 -220 95 -8 9 -19 36 -26 61
-28 107 -118 228 -216 290 -43 27 -128 59 -196 74 -25 6 -26 9 -18 32 14 36 3
70 -41 128 l-39 51 23 17 c31 24 33 23 43 -24 8 -39 12 -43 42 -44 37 -2 60
-18 73 -51 6 -15 17 -23 33 -23 22 0 26 6 31 44 9 57 -17 159 -53 211 l-28 40
44 2 c75 4 148 30 176 64 33 38 56 117 56 188 l0 55 -28 -45 c-52 -80 -105
-109 -199 -109 -73 0 -100 14 -58 30 95 36 182 105 216 171 22 44 52 177 47
210 -2 18 -14 8 -62 -56 -62 -80 -136 -143 -199 -170 -37 -15 -37 -15 -37 10
0 14 1 27 3 28 1 2 -4 11 -11 20 -11 13 -4 21 55 60 156 101 233 225 263 427
6 41 14 89 17 105 l5 30 -28 -27 c-45 -42 -144 -76 -144 -50 0 4 18 25 39 46
56 55 83 122 79 198 -4 78 -21 85 -43 16 -26 -80 -58 -129 -124 -191 -48 -44
-70 -57 -105 -62 -55 -9 -88 7 -144 71 -34 39 -39 50 -29 62 20 24 73 42 124
42 l48 -1 -64 -32 c-122 -61 -72 -81 53 -22 87 41 120 76 142 152 37 127 -32
277 -167 363 -52 34 -56 39 -37 58 8 8 13 64 16 163 4 133 3 153 -12 161 -29
16 -17 29 27 26 37 -3 44 -7 59 -38 22 -42 22 -72 4 -134 -13 -44 -13 -51 5
-93 10 -24 19 -51 19 -58 0 -8 5 -17 11 -20 6 -4 9 0 7 10 -5 31 20 27 60 -10
34 -30 41 -33 46 -18 8 21 23 7 28 -27 3 -27 57 -68 101 -77 25 -5 57 -36 57
-54 0 -4 -14 -12 -31 -18 -29 -10 -31 -9 -26 9 5 20 -13 26 -64 21 -9 -1 -24
10 -33 24 -9 14 -21 25 -26 25 -17 0 -11 -32 20 -105 17 -38 30 -77 30 -87 0
-12 11 -19 38 -23 20 -3 44 -10 52 -14 28 -15 51 -70 71 -168 21 -104 23 -109
53 -115 29 -5 30 -23 2 -36 -24 -11 -52 -78 -44 -103 4 -13 118 72 233 175 50
45 114 99 143 121 31 24 55 52 61 70 7 24 9 26 10 8 1 -30 17 -37 33 -15 7 10
29 28 48 42 35 23 69 59 70 72 0 3 -13 19 -30 35 -28 26 -30 33 -30 98 0 74
-7 115 -20 115 -4 0 -11 -10 -14 -22 -6 -21 -9 -19 -29 22 -21 44 -16 69 8 36
7 -9 15 -16 19 -16 4 0 -3 13 -16 29 -23 30 -58 41 -58 20 0 -7 -14 15 -31 47
-17 32 -38 67 -47 77 -15 17 -17 17 -29 1 -15 -21 -43 -11 -43 15 0 27 -39 49
-77 44 -17 -3 -39 0 -50 5 -16 10 -15 12 15 23 l34 11 -33 34 c-18 19 -29 37
-26 41 12 11 120 -20 125 -36 3 -10 -1 -12 -17 -8 -28 7 -27 -1 2 -13 l22 -9
-22 0 c-28 -1 -31 -21 -4 -21 10 0 21 -7 25 -15 3 -8 10 -15 15 -15 6 0 8 7 4
15 -4 12 2 11 29 -5 72 -42 311 -319 438 -507 72 -106 83 -129 70 -153 -6 -12
-8 -31 -4 -43 l8 -22 5 23 c3 13 11 24 16 25 13 3 140 -208 200 -331 151 -307
299 -782 325 -1037 4 -44 15 -131 24 -193 34 -242 45 -583 26 -757 -6 -49 -15
-133 -21 -185 -12 -105 -64 -386 -80 -427 -15 -39 16 -113 47 -113 18 0 23 -6
26 -32 5 -58 32 -46 54 23 17 55 22 62 48 65 16 2 39 13 50 25 20 21 20 22 1
14 -63 -23 -76 -24 -72 -7 5 19 20 83 36 154 14 62 14 68 -5 68 -9 0 -14 6
-11 13 2 6 10 12 17 12 10 0 18 27 27 95 6 52 12 103 12 113 1 11 10 21 21 24
11 3 20 10 20 15 0 5 -10 6 -21 3 -19 -6 -21 -4 -16 16 4 13 7 52 7 86 0 47 3
61 13 57 9 -3 13 6 13 30 0 19 -2 33 -5 31 -4 -2 -6 109 -6 246 0 203 2 248
13 244 8 -3 20 -5 27 -5 7 0 18 -14 24 -31 9 -26 13 -29 25 -20 17 14 12 37
-10 45 -8 3 -14 12 -14 21 0 10 -10 15 -34 15 l-34 0 -7 68 c-4 37 -11 94 -16
127 -13 89 -12 113 9 118 14 4 14 6 -5 12 -13 4 -23 12 -24 19 0 6 -3 30 -5
54 -4 35 -2 42 13 43 16 0 16 1 -2 10 -16 8 -27 40 -53 146 -18 74 -53 201
-78 281 -30 98 -43 154 -39 173 5 21 2 30 -14 38 -13 7 -30 43 -51 108 -94
294 -376 761 -677 1120 -52 61 -93 118 -92 125 3 27 -1 40 -13 35 -7 -2 -62
43 -123 101 -139 134 -430 377 -560 468 -94 66 -198 132 -342 218 -144 86
-478 232 -635 277 -50 15 -78 28 -78 37 0 8 -6 12 -15 8 -8 -3 -36 1 -62 9
-101 31 -384 95 -528 120 -82 14 -181 33 -220 41 -86 17 -85 17 -85 0 0 -8 20
-25 44 -39 38 -21 44 -22 53 -8 9 14 13 12 22 -13 6 -16 9 -37 6 -47 -4 -10 6
-46 21 -79 27 -61 44 -76 44 -41 0 26 9 30 49 19 27 -7 31 -12 20 -19 -9 -6
-2 -7 21 -2 64 13 255 9 282 -6 21 -11 42 -11 107 -2 175 23 349 -36 471 -160
56 -57 81 -73 177 -117 62 -28 157 -77 210 -108 54 -32 114 -67 133 -77 47
-26 172 -110 244 -165 33 -24 65 -45 71 -46 7 -1 27 -14 44 -29 18 -15 38 -27
45 -27 7 0 21 -9 31 -20 10 -11 25 -19 33 -18 8 2 19 -11 26 -32 6 -19 21 -39
34 -45 12 -5 22 -18 22 -27 0 -10 5 -18 10 -18 16 0 11 -37 -5 -44 -9 -3 -35
6 -58 21 -49 31 -242 174 -342 253 -73 59 -93 71 -345 206 -152 82 -188 96
-177 72 41 -90 81 -200 89 -248 l11 -60 53 -15 c46 -13 204 -108 204 -121 0
-3 -24 -2 -53 1 -70 9 -90 -8 -86 -72 3 -39 0 -46 -25 -63 -29 -18 -29 -18
-69 7 -21 13 -60 34 -85 44 l-46 20 49 29 c54 32 84 37 103 18 9 -9 12 -5 12
20 0 30 -2 32 -37 32 -21 0 -54 -4 -74 -9 l-37 -8 -4 96 c-4 86 -8 106 -46
191 -107 243 -250 385 -420 421 -120 25 -266 5 -404 -55 -50 -21 -42 1 13 39
21 15 36 32 33 37 -8 13 -99 1 -216 -28 -137 -34 -144 -33 -152 18 -14 89 -80
189 -132 202 -20 5 -33 1 -50 -15 l-24 -22 0 47 c0 57 -18 102 -56 138 -75 70
-193 64 -257 -12 -23 -26 -27 -41 -25 -74 3 -38 5 -41 36 -44 26 -3 34 1 42
22 17 47 75 61 110 26 25 -25 26 -72 1 -94 -30 -28 -155 -55 -294 -65 -110 -8
-137 -14 -193 -40 -64 -30 -65 -30 -150 -19 -102 14 -211 1 -324 -37 -142 -48
-210 -108 -275 -240 -38 -76 -49 -85 -113 -85 -30 0 -33 2 -26 23 13 44 33 74
84 127 29 30 47 56 40 58 -20 7 -132 -19 -171 -38 -40 -21 -94 -77 -104 -110
-7 -22 -7 -22 -34 4 -38 36 -66 34 -80 -5 -6 -18 -11 -40 -11 -50 0 -23 50
-61 115 -89 27 -12 51 -23 53 -24 2 -3 -32 -69 -45 -85 -7 -9 -150 70 -180
100 -36 34 -38 44 -23 83 8 21 7 26 -6 26 -31 0 -175 -83 -199 -115 -83 -108
-68 -272 32 -354 l36 -29 -44 -12 c-88 -23 -183 -77 -237 -134 -145 -153 -162
-385 -36 -481 l41 -32 -28 -19 c-15 -10 -38 -36 -51 -59 -20 -35 -23 -53 -23
-150 1 -92 5 -118 23 -159 12 -27 20 -51 17 -54 -12 -13 -88 53 -104 89 -9 21
-19 39 -23 39 -11 0 -21 -87 -13 -127 3 -20 20 -67 37 -105 17 -38 28 -71 25
-74 -6 -6 -63 23 -121 61 l-29 19 6 -54 c4 -30 16 -90 27 -134 12 -43 19 -80
17 -82 -2 -2 -21 5 -42 16 -48 25 -45 25 -45 -4 0 -36 27 -106 56 -143 27 -36
90 -73 124 -73 25 0 26 -14 0 -40 -25 -25 -89 -27 -150 -5 l-42 15 7 -27 c10
-39 40 -79 82 -104 30 -19 55 -24 128 -27 49 -2 110 1 135 6 l45 11 -47 -43
c-26 -24 -61 -46 -79 -50 -54 -11 -138 -7 -174 9 -35 14 -35 14 -24 -8 38 -73
108 -126 166 -127 20 0 21 -3 13 -26 -17 -43 -12 -177 9 -243 37 -118 102
-171 210 -171 48 0 72 7 130 37 71 36 98 39 69 6 -24 -27 -54 -92 -72 -155
-29 -101 -81 -134 -173 -109 -60 16 -100 54 -117 109 l-15 47 0 -58 c-1 -44 4
-66 19 -87 44 -62 158 -88 247 -56 l40 14 6 -80 c16 -244 200 -352 415 -244
72 36 132 47 132 24 0 -7 -52 -40 -115 -72 -63 -33 -115 -63 -115 -68 0 -4 26
-20 57 -36 31 -15 58 -33 60 -39 2 -6 -33 -34 -79 -61 -46 -28 -95 -63 -110
-79 -35 -36 -58 -92 -58 -141 0 -90 -100 -219 -191 -246 -73 -22 -91 -20 -169
14 -112 49 -176 35 -212 -47 -20 -44 -20 -76 -2 -150 5 -20 -3 -24 -88 -51
-131 -42 -384 -107 -509 -131 -214 -41 -558 -78 -773 -83 l-99 -3 -32 105
c-17 58 -32 125 -33 149 -1 25 -8 52 -15 60 -23 27 -28 51 -11 51 15 0 15 2 2
23 -13 19 -31 93 -33 137 -1 8 -7 26 -14 38 -14 27 -14 27 19 42 24 10 24 10
-7 7 -31 -3 -32 -3 -42 57 -17 101 -31 238 -24 249 3 5 0 13 -7 17 -9 5 -13
65 -17 211 -2 112 -5 215 -5 229 -1 14 4 47 10 75 7 35 7 52 0 56 -10 6 -3
122 8 140 2 4 6 54 9 111 11 251 109 645 249 1008 71 181 279 576 352 667 19
23 34 48 34 57 0 8 4 17 9 21 5 3 34 40 64 83 30 42 68 90 84 105 l30 28 7
-87 c5 -76 4 -88 -11 -100 -17 -13 -17 -13 2 -14 27 0 67 -29 59 -42 -4 -7 8
-9 35 -6 24 2 41 -1 41 -7 1 -12 35 -55 45 -55 3 0 16 -11 29 -25 30 -32 44
-32 49 3 3 18 4 13 6 -17 1 -38 3 -43 21 -38 11 3 18 2 16 -1 -2 -4 0 -17 5
-29 10 -28 40 -30 57 -3 18 29 34 25 22 -6 -6 -14 -10 -27 -10 -29 0 -2 20
-13 45 -24 25 -11 45 -25 45 -31 0 -6 15 -17 33 -25 17 -7 36 -17 40 -21 5 -5
21 -9 36 -10 15 -1 37 -5 49 -8 19 -6 22 -4 23 21 0 15 10 62 22 103 17 57 28
77 45 85 13 6 26 21 29 35 3 14 18 53 34 87 23 53 25 64 13 74 -8 6 -14 19
-14 28 0 10 -6 25 -13 36 -21 28 -58 13 -129 -53 -35 -32 -77 -68 -95 -81
l-32 -22 14 28 c22 42 29 92 16 119 -10 22 -9 24 18 24 42 0 70 28 79 80 l8
45 41 -2 42 -2 6 57 c7 74 31 164 55 215 11 23 20 47 20 54 0 7 5 13 11 13 6
0 42 29 80 64 37 35 88 76 113 91 25 15 46 30 46 33 -1 4 -9 32 -20 62 -21 60
-26 150 -10 180 20 37 -8 29 -104 -30 -197 -120 -276 -183 -307 -242 -13 -25
-26 -38 -39 -38 -20 0 -20 0 1 21 33 33 16 32 -49 -1 -32 -16 -67 -30 -76 -30
-9 0 -30 -13 -48 -30 -29 -28 -64 -41 -56 -21 12 32 405 343 465 367 18 8 50
32 72 53 22 22 43 36 46 31 3 -5 49 20 103 56 120 80 402 224 519 265 49 17
93 35 98 39 21 17 158 60 189 60 19 0 75 22 139 54 148 74 236 94 507 111 47
3 140 15 208 27 l122 21 0 39 c0 22 7 53 16 70 l16 31 -123 -6 c-131 -7 -452
-47 -566 -72 -107 -22 -392 -110 -489 -150 -220 -91 -434 -192 -562 -266 -297
-172 -553 -342 -687 -457 -68 -59 -95 -77 -97 -65 -2 14 -8 12 -33 -10 -16
-15 -25 -27 -18 -27 6 0 15 5 18 10 3 6 11 10 17 10 6 0 1 -11 -12 -25 -13
-14 -27 -25 -32 -25 -4 0 -30 -15 -58 -32 -42 -29 -53 -43 -80 -108 -39 -92
-77 -150 -100 -150 -9 0 -36 -27 -61 -61 -24 -33 -45 -56 -47 -50 -5 15 -35
14 -50 -1 -19 -19 -14 -30 9 -23 35 11 18 -17 -22 -37 -29 -15 -32 -23 -7 -19
5 0 8 -6 8 -15 0 -8 -17 -22 -38 -31 -47 -19 -50 -22 -32 -34 13 -8 11 -13 -8
-29 -19 -16 -22 -26 -17 -49 5 -24 2 -30 -13 -36 -11 -3 -23 -12 -26 -20 -3
-8 -11 -15 -18 -15 -13 0 -68 -62 -68 -76 0 -4 -11 -22 -25 -40 -14 -18 -25
-37 -25 -42 0 -6 -15 -32 -32 -59 -18 -26 -48 -78 -67 -115 -23 -46 -40 -68
-54 -70 -25 -4 -34 -25 -13 -30 13 -3 13 -5 0 -23 -12 -17 -18 -18 -44 -8 -23
9 -32 8 -41 -3 -12 -15 0 -18 48 -14 22 1 22 1 7 -37 -9 -21 -34 -73 -56 -117
-22 -43 -53 -117 -70 -165 -37 -106 -42 -113 -74 -100 -32 11 -34 11 -34 -1 0
-5 6 -10 13 -10 32 -1 40 -16 27 -56 -26 -81 -32 -92 -53 -103 -12 -7 -14 -9
-4 -7 9 3 17 1 17 -4 0 -13 -27 -133 -56 -243 -18 -72 -84 -410 -84 -435 0 -1
-10 -7 -22 -12 -22 -8 -22 -9 5 -9 26 -1 28 -3 22 -33 -14 -86 -25 -293 -25
-479 l0 -207 -37 -7 -38 -8 42 -14 43 -15 1 -71 c0 -40 2 -81 4 -92 10 -63 14
-155 7 -155 -4 0 -13 5 -20 12 -9 9 -12 9 -12 0 0 -7 10 -16 23 -21 16 -6 26
-23 35 -57 12 -46 12 -50 -9 -66 -11 -10 -29 -18 -38 -18 -23 0 -81 37 -81 52
0 7 -3 24 -6 38 -6 24 -6 25 9 5 9 -11 17 -15 17 -8 0 6 -7 19 -16 28 -39 39
-73 581 -55 878 18 284 68 605 131 842 107 403 388 1032 478 1072 18 8 21 12
10 13 -10 0 -18 2 -18 5 0 3 48 79 106 168 292 445 724 880 1174 1183 159 108
461 271 552 299 12 4 86 34 163 67 249 106 335 134 335 108 0 -5 4 -10 9 -10
5 0 7 8 4 18 -4 16 12 23 109 50 119 33 283 68 457 97 87 14 105 15 112 4 5
-9 9 -9 9 -3 0 40 658 53 975 20z m-2023 -148 c-7 -7 -12 -8 -12 -2 0 14 12
26 19 19 2 -3 -1 -11 -7 -17z m-90 -20 c-7 -7 -12 -8 -12 -2 0 14 12 26 19 19
2 -3 -1 -11 -7 -17z m3108 -8 c0 -5 -7 -7 -15 -4 -8 4 -15 8 -15 10 0 2 7 4
15 4 8 0 15 -4 15 -10z m-660 -70 c-19 -13 -30 -13 -30 0 0 6 10 10 23 10 18
0 19 -2 7 -10z m70 6 c0 -3 -4 -8 -10 -11 -5 -3 -10 -1 -10 4 0 6 5 11 10 11
6 0 10 -2 10 -4z m-2656 -21 c3 -10 -1 -15 -14 -15 -20 0 -33 13 -23 24 11 11
31 6 37 -9z m120 -15 c-13 -13 -54 -21 -54 -11 0 14 13 21 39 21 17 0 22 -3
15 -10z m2706 -60 c0 -5 -2 -10 -4 -10 -3 0 -8 5 -11 10 -3 6 -1 10 4 10 6 0
11 -4 11 -10z m-2216 -47 c11 -13 16 -23 13 -23 -10 0 -37 31 -37 42 0 6 1 9
3 7 1 -2 11 -14 21 -26z m3354 -112 c3 -8 -1 -12 -9 -9 -7 2 -15 10 -17 17 -3
8 1 12 9 9 7 -2 15 -10 17 -17z m-2793 -39 c-6 -5 -68 -28 -140 -52 -71 -24
-150 -52 -175 -62 l-45 -19 25 26 c36 39 119 83 186 99 65 16 163 21 149 8z
m1805 -45 c54 -20 158 -94 174 -125 7 -15 10 -35 7 -46 -6 -16 -10 -13 -31 18
-67 99 -203 138 -355 101 -103 -25 -144 -17 -92 18 68 44 220 61 297 34z m-11
-145 c79 -36 98 -152 24 -152 -16 0 -23 6 -23 20 0 34 -29 93 -63 128 l-32 33
30 -7 c17 -3 45 -13 64 -22z m-2859 -202 c11 -22 49 -62 85 -92 36 -28 65 -55
65 -59 0 -12 -69 -29 -118 -29 -92 0 -139 60 -107 137 17 41 43 83 50 83 3 0
14 -18 25 -40z m3128 -57 c28 -55 34 -90 21 -114 -10 -20 -12 -19 -31 22 -10
24 -29 54 -40 66 l-21 22 24 20 c13 11 25 20 26 21 2 0 11 -17 21 -37z m-2712
-6 c-15 -19 -26 -40 -26 -48 0 -10 -4 -9 -17 4 -16 16 -15 18 12 47 40 42 63
40 31 -3z m3744 -98 c0 -6 -4 -7 -10 -4 -5 3 -10 11 -10 16 0 6 5 7 10 4 6 -3
10 -11 10 -16z m-394 -147 c24 -58 15 -60 -16 -3 -17 30 -30 56 -30 59 0 14
33 -27 46 -56z m119 38 c3 -5 1 -10 -4 -10 -6 0 -11 5 -11 10 0 6 2 10 4 10 3
0 8 -4 11 -10z m400 -18 c-3 -3 -11 0 -18 7 -9 10 -8 11 6 5 10 -3 15 -9 12
-12z m-5325 -6 c0 -3 -4 -8 -10 -11 -5 -3 -10 -1 -10 4 0 6 5 11 10 11 6 0 10
-2 10 -4z m4910 -101 c0 -8 -4 -15 -9 -15 -17 0 -61 61 -61 83 1 20 4 18 35
-15 19 -21 35 -45 35 -53z m47 43 c-3 -8 -6 -5 -6 6 -1 11 2 17 5 13 3 -3 4
-12 1 -19z m453 14 c0 -13 -12 -22 -22 -16 -10 6 -1 24 13 24 5 0 9 -4 9 -8z
m-4930 -12 c0 -5 -5 -10 -11 -10 -5 0 -7 5 -4 10 3 6 8 10 11 10 2 0 4 -4 4
-10z m4238 -17 c2 -8 -5 -13 -17 -13 -12 0 -21 6 -21 16 0 18 31 15 38 -3z
m369 -70 c-3 -10 -5 -4 -5 12 0 17 2 24 5 18 2 -7 2 -21 0 -30z m403 18 c0
-17 -3 -18 -31 -8 l-31 12 28 6 c16 4 30 7 32 8 1 0 2 -8 2 -18z m-5412 -41
c-7 -11 -20 -22 -28 -25 -9 -3 -27 -23 -41 -45 -13 -22 -30 -40 -37 -40 -10 0
-8 11 9 38 12 20 27 47 33 59 11 23 36 32 36 12 0 -6 7 -3 16 5 21 22 27 20
12 -4z m869 -51 c-6 -50 -42 -139 -56 -139 -16 0 -81 63 -81 79 0 28 97 109
134 111 5 0 6 -23 3 -51z m3737 35 c20 -20 21 -78 0 -94 -13 -11 -23 -5 -70
41 -46 45 -52 55 -37 61 33 12 91 8 107 -8z m820 -17 c6 -9 7 -19 3 -23 -9
-10 -48 26 -41 38 8 12 25 6 38 -15z m-567 -9 c-3 -8 -6 -5 -6 6 -1 11 2 17 5
13 3 -3 4 -12 1 -19z m224 -11 c-10 -9 -11 -8 -5 6 3 10 9 15 12 12 3 -3 0
-11 -7 -18z m-4771 -1 c0 -2 -8 -10 -17 -17 -16 -13 -17 -12 -4 4 13 16 21 21
21 13z m-235 -46 c71 -16 97 -80 54 -134 -23 -29 -39 -34 -39 -12 0 17 -18 31
-27 22 -3 -3 0 -13 7 -21 11 -13 10 -18 -9 -31 -17 -12 -21 -22 -16 -44 6 -26
4 -28 -32 -33 -21 -2 -41 -2 -45 2 -12 10 -14 50 -3 49 6 0 9 -4 8 -9 -2 -5 6
-9 17 -9 26 0 25 14 -2 34 l-23 15 23 20 c12 10 22 24 22 30 0 7 7 14 15 17
10 4 15 20 15 44 0 35 -3 39 -30 45 -17 4 -28 11 -24 16 7 11 38 11 89 -1z
m5160 -10 c4 -6 -28 -26 -74 -47 -67 -30 -80 -40 -75 -55 6 -19 -10 -25 -21
-8 -4 7 -13 7 -26 0 -24 -13 -24 -10 2 51 16 37 28 51 48 55 14 3 31 7 36 9
24 8 104 4 110 -5z m-2558 -62 c-31 -81 -29 -205 4 -278 26 -57 31 -61 227
-230 115 -99 134 -143 88 -197 -23 -26 -31 -28 -110 -32 -101 -4 -193 16 -276
58 -77 40 -94 65 -85 132 l7 53 15 -30 c21 -40 43 -64 60 -64 9 0 6 12 -12 38
-24 36 -36 85 -49 195 -6 50 7 58 17 9 9 -42 40 -75 105 -110 61 -33 182 -67
182 -51 0 5 -23 20 -51 35 -73 36 -143 105 -170 167 -28 63 -30 168 -5 237 16
42 61 120 70 120 2 0 -5 -24 -17 -52z m1797 -2 c32 -57 39 -89 21 -112 -14
-19 -14 -19 -15 1 0 17 -19 66 -57 153 -13 31 30 -4 51 -42z m286 0 c0 -2 7
-21 16 -42 16 -39 16 -39 -4 -19 -24 24 -38 65 -23 65 6 0 11 -2 11 -4z
m-4910 -11 c0 -2 -11 -21 -25 -41 -14 -20 -37 -63 -53 -95 -19 -42 -31 -56
-43 -53 -12 3 -22 -10 -37 -47 -24 -57 -42 -57 -42 -1 0 33 10 47 83 121 45
47 83 90 83 95 1 6 2 14 3 19 1 7 31 10 31 2z m5404 -11 c9 -8 16 -25 16 -37
1 -29 21 -55 39 -49 11 4 12 -2 7 -24 -4 -16 -9 -40 -10 -54 -2 -14 -4 -29 -4
-33 -1 -5 -12 -1 -24 7 -12 9 -34 16 -49 16 -35 0 -55 23 -35 39 8 7 17 25 21
40 3 16 16 34 28 40 12 6 15 10 7 8 -13 -4 -84 25 -100 40 -2 2 2 8 10 13 23
15 77 12 94 -6z m-114 -3 c0 -13 -30 -22 -43 -14 -7 4 -2 10 13 14 14 4 26 7
28 8 1 1 2 -3 2 -8z m-5361 -24 c-2 -1 -15 -11 -29 -22 l-25 -20 19 23 c11 12
24 22 29 22 6 0 8 -1 6 -3z m5071 -37 c0 -10 -4 -22 -10 -25 -6 -4 -10 7 -10
25 0 18 4 29 10 25 6 -3 10 -15 10 -25z m-4188 -2 c13 -13 41 -37 62 -54 34
-26 38 -34 32 -58 -11 -44 -50 -76 -91 -76 -29 0 -39 6 -55 33 -35 56 -36 91
-4 136 16 22 30 41 31 41 1 0 12 -10 25 -22z m4495 -14 c-3 -3 -12 -4 -19 -1
-8 3 -5 6 6 6 11 1 17 -2 13 -5z m-5497 -47 c0 -2 -12 -14 -27 -28 l-28 -24
24 28 c23 25 31 32 31 24z m353 -137 c19 -15 26 -28 22 -40 -4 -13 2 -21 25
-29 18 -6 29 -15 25 -20 -6 -10 -48 3 -69 21 -6 4 -18 8 -27 8 -16 0 -16 -4
-4 -50 16 -59 9 -63 -23 -14 -17 25 -28 33 -41 29 -15 -4 -17 -1 -13 20 2 14
-3 36 -13 51 l-17 27 28 -7 c16 -4 31 -12 32 -17 6 -15 32 -10 39 6 3 9 -2 22
-13 29 -16 12 -17 16 -4 31 14 17 15 16 20 -3 3 -11 18 -30 33 -42z m5150 20
c5 -18 4 -18 -19 -3 -29 19 -30 23 -5 23 10 0 21 -9 24 -20z m-5717 -27 c-10
-10 -19 5 -10 18 6 11 8 11 12 0 2 -7 1 -15 -2 -18z m5946 -14 c4 -1 13 -2 18
-3 14 -1 30 -27 29 -46 0 -8 -6 -2 -14 14 -11 27 -13 28 -22 10 -5 -10 -15
-45 -22 -77 -16 -73 -38 -97 -90 -97 -52 0 -59 13 -15 29 32 12 62 46 50 58
-3 3 0 11 8 17 7 6 16 22 19 36 6 24 4 25 -38 25 -24 -1 -49 -6 -57 -12 -17
-15 -48 1 -33 16 6 5 17 11 25 13 8 2 22 12 31 23 18 20 18 20 26 -1 6 -17 12
-20 31 -13 13 5 22 17 23 31 l0 23 11 -22 c6 -13 15 -24 20 -24z m-2024 -26
c24 -53 27 -67 24 -163 -1 -58 3 -130 9 -160 17 -90 71 -221 104 -252 17 -15
54 -50 83 -78 39 -38 52 -45 52 -31 0 21 -44 83 -89 125 -43 41 -39 53 7 20
58 -43 132 -116 149 -148 19 -36 10 -90 -20 -111 -17 -12 -18 -15 -5 -15 23 0
58 61 58 99 0 40 -21 81 -66 131 -23 25 -31 41 -23 45 16 10 47 -24 83 -92 29
-55 33 -58 69 -58 20 0 36 -2 34 -5 -27 -44 -36 -81 -26 -109 6 -17 9 -68 7
-114 -3 -72 -8 -88 -37 -133 -24 -38 -35 -70 -41 -118 -6 -53 -14 -73 -39
-101 -53 -61 -35 -143 34 -161 34 -8 93 13 140 52 40 32 40 32 64 13 13 -11
39 -19 59 -19 40 0 116 41 133 71 19 36 20 14 3 -62 -9 -44 -36 -111 -65 -166
-34 -66 -44 -93 -34 -93 51 0 145 158 167 281 10 54 18 70 50 100 39 36 51 79
23 79 -9 0 -15 9 -15 25 0 22 3 25 25 19 13 -3 37 -2 53 4 l28 9 -3 -82 c-2
-80 -5 -89 -61 -202 -33 -65 -70 -156 -82 -203 -28 -104 -41 -130 -80 -163
-63 -54 -155 -44 -222 23 -21 21 -41 34 -44 28 -3 -5 -10 -82 -14 -171 -9
-171 -27 -277 -65 -392 -65 -195 -166 -289 -525 -490 -96 -54 -207 -119 -246
-145 -106 -69 -135 -75 -384 -75 -184 0 -223 3 -268 19 -30 10 -154 85 -276
166 -373 248 -455 349 -501 614 -14 83 -21 286 -10 274 3 -3 21 -84 41 -179
40 -204 63 -277 104 -339 69 -104 230 -238 358 -297 41 -19 75 -33 77 -31 8 8
-28 165 -46 199 -26 51 -40 58 -33 17 4 -22 -4 -11 -25 36 -37 84 -57 107 -47
56 7 -41 -1 -32 -43 50 -57 111 -81 196 -91 324 -14 190 -38 238 -258 534
-138 184 -147 194 -150 164 -7 -71 68 -271 146 -392 l43 -65 -70 72 c-118 121
-165 247 -159 427 l3 98 34 -48 c19 -27 61 -81 93 -121 32 -39 58 -77 59 -85
0 -7 4 -4 9 7 5 11 9 54 9 96 1 85 -14 136 -78 269 -39 81 -70 193 -71 252 0
64 46 106 149 139 86 26 116 44 148 86 26 34 28 43 26 113 -2 63 1 80 15 93
16 15 17 12 14 -42 -4 -62 23 -136 53 -148 26 -9 16 -20 -23 -26 -20 -4 -57
-19 -82 -35 -25 -15 -66 -36 -92 -46 -65 -24 -69 -36 -12 -36 63 0 46 -20 -28
-31 -52 -8 -98 -33 -106 -58 -3 -9 2 -11 14 -8 80 24 82 23 31 -24 -39 -35
-50 -52 -54 -85 -10 -77 48 -104 138 -65 28 12 79 21 139 24 l95 6 -68 -36
c-49 -26 -84 -55 -128 -106 -33 -38 -58 -74 -56 -81 4 -14 41 -20 73 -12 13 4
31 20 39 36 15 29 17 30 38 15 32 -22 39 -19 32 16 -5 23 -3 34 12 44 28 22
33 18 33 -20 0 -83 105 -116 172 -56 28 25 33 36 33 75 0 25 1 46 2 46 1 0 25
-20 53 -45 l50 -45 -37 -42 c-27 -29 -32 -39 -18 -34 11 5 34 12 50 16 17 4
36 9 44 11 7 2 16 -2 18 -9 14 -39 -231 -67 -372 -43 -37 7 -70 9 -73 6 -9 -9
31 -58 68 -82 25 -17 47 -23 89 -23 72 0 118 13 214 60 42 21 77 35 77 31 0
-4 -7 -31 -16 -60 -23 -78 -14 -95 21 -42 25 38 30 41 33 24 3 -20 -16 -105
-34 -148 -7 -18 -6 -19 10 -5 20 16 31 40 51 115 13 49 14 49 14 14 1 -20 -6
-56 -14 -79 -21 -59 -20 -63 17 -56 73 14 119 96 123 215 1 42 5 96 9 121 8
48 -7 159 -26 195 -11 19 -11 19 -18 0 -6 -16 -9 -13 -20 20 -44 134 -129 188
-325 206 -64 6 -136 9 -161 7 -51 -4 -55 3 -16 30 48 35 138 55 211 48 62 -6
65 -5 46 10 -11 9 -42 27 -70 41 l-50 25 80 -6 c44 -3 98 -8 120 -12 54 -7 30
7 -69 41 -47 16 -93 25 -113 23 -39 -5 -43 4 -8 20 39 18 66 15 146 -19 97
-40 156 -47 213 -25 24 9 50 24 57 32 11 13 6 14 -42 9 l-54 -6 35 20 c19 10
44 28 54 40 11 12 30 21 43 21 13 0 31 9 40 19 16 19 17 19 62 -3 141 -71 295
-79 382 -21 21 14 57 49 79 77 82 106 78 103 101 82 38 -35 63 -95 63 -157 1
-54 -2 -61 -29 -83 -16 -13 -59 -40 -95 -59 -79 -42 -59 -46 26 -6 72 34 137
89 154 131 7 17 16 30 21 30 17 0 19 -21 5 -55 -18 -41 -6 -46 23 -9 25 32 27
86 6 137 -28 67 -14 63 21 -5 19 -38 39 -68 44 -68 13 0 14 -5 -17 81 -22 61
-27 99 -34 224 -4 83 -12 165 -17 183 -16 50 -4 38 26 -25z m-360 0 c71 -28
100 -45 128 -75 19 -22 34 -42 31 -44 -7 -8 -253 125 -273 148 -19 21 -19 21
1 14 11 -5 62 -24 113 -43z m1666 -25 c60 -49 99 -153 65 -174 -14 -8 -64 40
-83 81 -9 17 -38 60 -66 95 -27 34 -50 64 -50 66 0 10 103 -42 134 -68z m825
39 c0 -21 -1 -21 -9 -2 -12 28 -12 37 0 30 6 -3 10 -16 9 -28z m-4816 -64 c4
-2 7 -35 7 -73 0 -67 -1 -68 -34 -88 -34 -20 -54 -62 -57 -117 -1 -11 -8 0
-16 25 -8 25 -12 66 -10 93 2 26 0 50 -4 53 -17 10 -9 41 21 83 26 36 34 40
58 35 15 -4 30 -9 35 -11z m-603 -32 c0 -5 3 -18 6 -28 5 -16 4 -16 -10 1 -18
23 -20 36 -6 36 6 0 10 -4 10 -9z m2298 -216 c19 -46 23 -50 51 -47 17 1 31 0
31 -4 0 -11 -23 -50 -43 -71 l-20 -23 20 0 c11 0 37 12 58 26 24 16 41 22 47
16 16 -16 -10 -52 -50 -69 -20 -8 -50 -24 -66 -36 -35 -25 -82 -24 -141 2 -37
16 -45 25 -51 56 -17 91 23 218 92 295 l39 43 6 -69 c4 -38 16 -91 27 -119z
m-2325 135 c3 -11 1 -18 -4 -14 -5 3 -9 12 -9 20 0 20 7 17 13 -6z m9 -72 c-6
-6 -7 0 -4 19 5 21 7 23 10 9 2 -10 0 -22 -6 -28z m1768 -14 c-14 -62 -40
-104 -94 -151 -37 -33 -133 -80 -142 -70 -2 2 24 21 57 43 71 46 120 102 155
179 15 31 28 54 30 52 3 -2 0 -26 -6 -53z m3520 6 c0 -5 -5 -10 -11 -10 -5 0
-7 5 -4 10 3 6 8 10 11 10 2 0 4 -4 4 -10z m-192 -54 c18 -24 32 -48 32 -52 0
-5 -7 3 -17 16 -9 14 -27 37 -41 53 -14 15 -21 27 -16 27 6 0 25 -20 42 -44z
m-1466 -114 c-27 -4 -69 14 -81 35 -8 16 -2 15 45 -7 33 -16 47 -26 36 -28z
m-1788 -48 c-7 -58 -8 -58 -16 -24 -10 44 -1 107 14 92 6 -6 7 -32 2 -68z
m1922 -138 c-16 -38 -40 -47 -50 -20 -13 34 -5 69 22 97 l27 28 8 -34 c6 -24
4 -45 -7 -71z m2358 68 c9 -4 16 -17 16 -33 l-1 -26 -19 24 c-29 34 -27 47 4
35z m-4774 -179 c-7 -24 -21 -51 -31 -61 -17 -15 -17 -14 1 22 11 21 23 54 27
73 3 20 8 30 11 23 2 -8 -1 -33 -8 -57z m4900 -30 c0 -8 -2 -15 -4 -15 -2 0
-6 7 -10 15 -3 8 -1 15 4 15 6 0 10 -7 10 -15z m-1541 -21 c-36 -43 -100 -55
-152 -27 l-32 17 88 7 c49 4 91 10 95 13 12 13 14 5 1 -10z m-5799 -128 c0 -3
-4 -8 -10 -11 -5 -3 -10 -1 -10 4 0 6 5 11 10 11 6 0 10 -2 10 -4z m1820 0 c0
-12 -114 -87 -128 -84 -22 4 -27 41 -7 58 22 19 135 41 135 26z m3574 -135 l7
-63 -38 7 c-21 4 -40 9 -42 11 -5 5 25 95 42 129 10 19 10 19 17 0 4 -11 10
-49 14 -84z m222 -66 c23 -49 34 -145 16 -145 -5 0 -16 33 -25 73 -10 39 -29
92 -42 116 -32 55 -31 60 1 30 15 -13 37 -46 50 -74z m-3541 32 c8 -13 16 -49
18 -81 2 -47 -1 -60 -17 -72 -11 -8 -23 -11 -27 -7 -3 5 -10 47 -13 96 -6 74
-5 87 8 87 9 0 22 -10 31 -23z m-2152 -4 c-7 -2 -19 -2 -25 0 -7 3 -2 5 12 5
14 0 19 -2 13 -5z m2263 -35 c27 -29 44 -62 44 -84 0 -10 -10 -2 -26 22 -14
21 -34 48 -44 59 -9 11 -20 26 -25 33 -11 21 25 -1 51 -30z m33 -297 c-6 -93
2 -112 61 -153 l25 -17 -25 6 c-50 11 -77 48 -95 127 -6 28 -17 52 -25 54 -33
11 22 -183 74 -265 45 -71 128 -67 179 7 l17 24 0 -25 c0 -50 -58 -99 -118
-99 -42 0 -91 38 -124 96 -27 49 -100 231 -113 285 l-7 26 77 -15 76 -15 -2
-36z m-434 -53 c32 -15 32 -21 -8 -64 -24 -26 -43 -37 -75 -41 -42 -6 -52 -19
-30 -41 16 -16 51 -15 118 2 30 8 56 13 57 12 2 -1 -6 -34 -16 -72 -28 -98
-80 -137 -142 -104 -69 38 -74 223 -7 308 13 15 69 16 103 0z m3832 -39 c17
-14 0 -39 -27 -39 -16 0 -50 38 -50 56 0 10 61 -4 77 -17z m1973 -89 c0 -5 -2
-10 -4 -10 -3 0 -8 5 -11 10 -3 6 -1 10 4 10 6 0 11 -4 11 -10z m-8137 -34 c6
-15 -1 -26 -15 -26 -4 0 -8 9 -8 20 0 23 15 27 23 6z m8427 -82 c0 -8 -6 -11
-15 -8 -8 4 -15 12 -15 20 0 8 6 11 15 8 8 -4 15 -12 15 -20z m-5635 -397 c11
-59 3 -92 -24 -95 -52 -8 -70 71 -25 107 36 28 42 27 49 -12z m-126 -171 c71
-69 174 -57 210 25 l19 41 7 -30 c3 -18 1 -43 -8 -63 -20 -47 -98 -116 -140
-124 -46 -9 -116 22 -145 63 -30 42 -46 119 -37 178 l7 49 25 -51 c13 -28 41
-68 62 -88z m2836 -236 c0 -180 -2 -197 -20 -222 -11 -14 -32 -33 -47 -42 -26
-16 -26 -16 -32 11 -17 79 -23 164 -16 204 5 24 27 90 49 145 23 56 41 110 41
120 1 18 1 18 13 -1 8 -14 12 -80 12 -215z m-141 -40 c-10 -29 -14 -75 -13
-138 l2 -94 -44 -35 c-24 -19 -64 -45 -89 -58 -25 -13 -61 -38 -80 -56 -29
-27 -46 -34 -100 -41 -46 -5 -88 -19 -143 -48 -43 -22 -77 -36 -75 -31 1 6 41
49 87 96 46 47 82 88 79 90 -8 8 -149 -117 -204 -181 -35 -41 -68 -67 -105
-83 -30 -14 -92 -42 -138 -63 -46 -21 -86 -36 -88 -34 -2 2 11 14 29 27 18 13
70 56 114 96 45 40 140 110 210 157 294 193 525 372 555 428 18 33 19 15 3
-32z m-5049 30 c3 -5 1 -10 -4 -10 -6 0 -11 5 -11 10 0 6 2 10 4 10 3 0 8 -4
11 -10z m-15 -90 c0 -5 -9 -6 -20 -3 -11 3 -17 9 -15 14 7 10 35 1 35 -11z
m7930 -224 c0 -3 -4 -8 -10 -11 -5 -3 -10 -1 -10 4 0 6 5 11 10 11 6 0 10 -2
10 -4z m-4588 -190 c80 -85 94 -100 178 -178 36 -33 42 -40 13 -14 -29 25 -60
46 -70 46 -9 0 -42 26 -72 58 l-54 57 33 -49 c18 -26 61 -81 97 -122 35 -41
61 -74 56 -74 -17 0 -209 99 -250 129 -81 59 -122 138 -138 269 l-7 54 73 -53
c41 -29 104 -85 141 -123z m-315 -50 c30 -24 140 -90 244 -147 104 -57 213
-119 242 -137 89 -57 9 -31 -143 46 -308 157 -477 292 -455 364 7 19 11 15 32
-31 17 -36 42 -66 80 -95z m-2931 18 c-3 -9 -6 -27 -6 -40 0 -13 -4 -24 -9
-24 -13 0 -19 69 -6 74 20 9 27 6 21 -10z m45 -57 c-6 -8 -9 -21 -5 -30 3 -8
0 -18 -6 -22 -7 -4 -10 6 -9 32 3 47 8 58 22 44 7 -7 7 -14 -2 -24z m-235 -72
c27 -27 26 -57 -4 -105 l-15 -24 -12 35 c-7 19 -16 54 -20 77 -6 35 -4 42 10
42 9 0 27 -11 41 -25z m223 -46 c-2 -29 -10 -73 -18 -98 l-16 -46 -3 43 c-3
40 22 152 34 152 3 0 4 -23 3 -51z m-73 -156 c-4 -9 1 -62 11 -118 9 -55 14
-109 10 -118 -4 -12 -18 -17 -43 -17 l-37 0 7 71 c7 70 41 199 52 199 4 0 3
-7 0 -17z m104 -59 c-1 -4 4 -10 10 -14 8 -5 7 -9 -5 -13 -9 -4 -13 -3 -10 3
3 6 2 10 -3 10 -6 0 -8 10 -4 22 5 19 17 11 12 -8z m-30 -134 c-11 -20 -30
-28 -30 -12 0 11 22 32 32 32 5 0 4 -9 -2 -20z m7080 -49 c0 -6 -4 -13 -10
-16 -5 -3 -10 1 -10 9 0 9 5 16 10 16 6 0 10 -4 10 -9z m-5220 -13 c1 -79 22
-446 30 -523 8 -79 8 -101 -2 -104 -28 -9 -87 -79 -98 -118 -21 -68 -6 -127
45 -182 l44 -47 2 -95 c6 -197 -1 -412 -17 -570 -20 -196 -21 -214 -10 -305
l8 -71 -64 13 c-183 39 -476 -13 -720 -127 -70 -33 -140 -59 -158 -59 -17 0
-95 27 -173 59 -158 66 -277 103 -412 126 -186 32 -205 37 -224 61 -18 23 -18
54 -15 656 2 359 9 682 15 746 l12 113 -36 72 c-20 40 -52 91 -72 115 l-37 42
35 0 c99 0 425 24 679 50 302 31 448 52 719 101 135 24 266 42 437 58 6 0 12
-5 12 -11z m297 -90 c57 -28 102 -55 101 -59 -4 -10 -98 -109 -103 -109 -3 0
-24 14 -48 31 -36 26 -44 38 -54 87 -14 65 -16 102 -6 102 3 0 53 -23 110 -52z
m4343 -74 c0 -8 -5 -12 -10 -9 -6 4 -8 11 -5 16 9 14 15 11 15 -7z m-4175 -24
c3 -5 17 -10 31 -10 30 0 30 -1 -1 -75 -24 -58 -25 -67 -24 -295 0 -129 4
-345 8 -480 11 -326 -2 -857 -22 -902 -9 -18 -15 -40 -14 -50 0 -9 -14 -39
-32 -67 -32 -49 -55 -64 -63 -39 -5 15 -28 1 -28 -18 0 -8 7 -14 16 -14 13 0
14 -3 4 -15 -11 -13 -17 -11 -49 14 -20 16 -50 53 -65 82 l-29 51 17 212 c9
116 17 289 18 384 1 122 4 170 11 163 6 -6 17 -11 25 -11 12 0 12 3 2 15 -7 8
-18 15 -25 15 -8 0 -15 42 -23 133 l-12 132 25 19 c40 28 69 93 68 151 0 60
-23 109 -68 150 l-33 30 -4 176 -3 176 48 -30 c44 -27 48 -33 43 -59 -5 -27
-4 -29 21 -26 21 2 28 11 38 46 13 43 88 152 105 152 5 0 12 -4 15 -10z m5314
-56 c58 -49 57 -58 -8 -97 l-59 -35 -17 39 c-17 37 -17 41 0 79 21 47 41 51
84 14z m-208 -184 c5 0 19 16 31 35 25 44 31 41 16 -9 -12 -37 -22 -49 -82
-99 l-29 -23 12 -65 c14 -80 8 -100 -65 -237 -151 -286 -375 -573 -680 -872
-255 -250 -472 -420 -754 -590 -266 -160 -682 -349 -738 -335 -14 3 -21 2 -18
-4 4 -6 -25 -19 -66 -31 -40 -12 -107 -32 -148 -45 -252 -78 -627 -133 -1024
-151 l-158 -7 7 22 c4 12 2 21 -4 21 -6 0 -11 -9 -11 -19 0 -17 -6 -19 -52
-16 -29 2 -107 6 -173 10 -153 9 -155 9 -312 37 -114 19 -133 25 -133 41 0 10
-5 15 -10 12 -6 -4 -8 -11 -5 -16 4 -5 -2 -9 -13 -9 -32 0 -255 47 -328 70
-237 72 -373 118 -488 167 -178 74 -687 334 -679 346 4 6 47 8 115 4 83 -5
130 -14 193 -35 95 -33 235 -120 213 -133 -7 -5 -21 -6 -32 -3 -13 4 -16 2
-11 -6 4 -7 20 -10 37 -8 21 4 33 -1 43 -15 12 -18 18 -19 40 -9 23 11 30 8
70 -29 30 -28 45 -36 45 -26 0 20 50 54 73 49 18 -4 23 -27 7 -37 -18 -11 -10
-25 15 -25 13 0 48 -10 77 -21 142 -57 462 -144 658 -178 390 -69 821 -78
1243 -25 283 35 669 127 885 211 65 24 133 50 152 56 19 6 40 16 45 22 6 7 39
24 75 39 82 36 255 131 386 213 56 34 104 63 108 63 4 0 29 18 57 40 28 22 55
40 60 40 5 0 26 15 47 34 20 19 118 101 217 184 99 82 230 200 290 263 l110
114 65 12 65 12 -52 -3 c-50 -3 -66 5 -43 19 38 23 342 458 441 630 34 61 71
121 81 134 10 13 18 30 18 39 0 8 21 60 48 114 45 96 47 98 50 64 2 -20 8 -36
13 -36z m-341 -257 c0 -21 -277 -417 -371 -529 -83 -100 -335 -361 -361 -375
-15 -8 -24 -6 -39 7 -15 14 -19 14 -19 3 0 -8 5 -20 10 -25 13 -13 -43 -59
-286 -243 -302 -226 -638 -409 -951 -515 -154 -52 -151 -52 -159 -11 -7 39
-15 43 -35 18 -13 -16 -12 -17 4 -4 15 12 17 11 17 -17 0 -29 -4 -33 -52 -47
-102 -29 -271 -66 -411 -89 -213 -36 -214 -36 -228 -20 -10 13 -15 12 -31 -6
-22 -23 -28 -22 -32 6 -2 10 -7 19 -13 21 -6 2 -8 -6 -6 -20 5 -23 1 -24 -58
-30 -78 -9 -428 -7 -493 1 l-50 7 37 28 c19 15 42 27 50 27 9 0 17 6 20 13 3
9 65 12 263 13 253 1 323 7 577 50 31 6 42 3 58 -15 11 -11 23 -21 26 -21 3 0
-2 9 -11 19 -17 18 -17 20 1 29 10 5 45 15 78 22 33 6 69 14 79 17 15 4 18 1
13 -16 -7 -29 7 -27 27 4 9 14 26 25 37 25 20 0 21 -1 5 -24 -10 -16 -12 -27
-6 -31 10 -6 30 34 30 60 0 8 18 19 43 25 95 26 296 95 391 134 200 85 418
199 461 242 23 23 69 56 102 73 34 17 99 56 144 87 45 31 93 60 106 65 18 7
23 14 18 28 -5 17 -2 19 24 16 25 -3 39 4 78 43 27 26 98 89 158 141 61 51
133 120 160 151 82 95 315 377 417 506 53 66 108 131 123 142 27 21 55 29 55
15z m-5172 -40 c-5 -19 15 -53 34 -58 14 -5 29 2 53 25 18 18 38 29 43 26 34
-21 15 -123 -26 -145 -29 -16 -74 -14 -99 4 -41 28 -51 104 -21 143 12 13 19
16 16 5z m2090 -355 c-33 -64 -75 -127 -115 -172 -45 -50 -83 -109 -130 -201
-110 -215 -171 -324 -256 -453 -81 -124 -96 -135 -97 -69 0 15 -11 53 -24 85
-13 31 -34 102 -46 157 -24 106 -105 347 -141 418 -12 23 -36 63 -54 88 -18
25 -38 56 -44 70 l-12 24 21 -25 c122 -143 219 -270 240 -313 26 -55 50 -67
106 -53 25 7 31 22 59 156 26 129 91 242 157 276 26 13 228 58 234 51 1 -1 -2
-25 -7 -52 -22 -127 -22 -120 -5 -106 19 16 56 113 56 149 0 36 9 46 50 59 61
19 62 16 8 -89z m515 33 c17 -6 17 -8 3 -20 -13 -11 -19 -11 -31 -1 -30 25
-13 38 28 21z m-1240 -161 c71 -36 72 -37 75 -78 2 -29 -1 -42 -10 -42 -15 0
-150 136 -168 170 l-13 25 22 -19 c11 -11 54 -36 94 -56z m3212 10 c-10 -11
-22 -17 -28 -13 -6 4 -3 12 8 20 28 20 41 16 20 -7z m-3485 -112 c0 -4 -5 -8
-11 -8 -6 0 3 -16 20 -35 36 -42 38 -49 11 -40 -29 9 -25 -14 5 -25 27 -10 35
-40 10 -40 -11 0 -12 -6 -6 -22 9 -26 31 -36 31 -15 0 18 27 30 35 17 4 -6 10
-10 15 -10 14 0 -9 79 -45 151 -20 38 -33 69 -31 69 19 0 159 -292 226 -471
44 -117 74 -253 61 -278 -13 -24 -64 -61 -84 -61 -12 0 -14 -10 -11 -42 3 -32
2 -38 -5 -23 -5 11 -10 31 -10 43 -1 13 -9 31 -20 40 -25 23 -133 304 -186
486 -24 83 -57 187 -73 231 -16 44 -32 93 -36 108 -7 28 -5 27 49 -19 30 -26
55 -51 55 -56z m3434 -36 c-33 -31 -71 -66 -84 -76 -14 -11 -59 -49 -100 -86
-138 -122 -216 -176 -241 -168 -6 2 99 92 233 200 238 192 313 243 192 130z
m-1486 -61 c3 -8 -1 -12 -9 -9 -7 2 -15 10 -17 17 -3 8 1 12 9 9 7 -2 15 -10
17 -17z m862 -63 c0 -12 -6 -9 -26 13 -19 22 -19 22 4 8 12 -8 22 -17 22 -21z
m343 10 c-48 -63 -90 -111 -105 -119 -41 -22 -27 2 37 65 63 62 90 83 68 54z
m-1743 -28 c0 -5 5 -9 11 -7 6 1 14 -4 16 -11 4 -11 1 -12 -15 -3 -25 13 -38
31 -23 31 6 0 11 -4 11 -10z m1670 -380 c-24 -15 -36 -11 -14 4 10 8 21 12 24
10 2 -3 -2 -9 -10 -14z m-5940 -139 c0 -5 -7 -12 -16 -15 -14 -5 -15 -4 -4 9
14 17 20 19 20 6z m4247 -83 c-3 -8 -6 -5 -6 6 -1 11 2 17 5 13 3 -3 4 -12 1
-19z m-2317 -79 c0 -5 -4 -9 -10 -9 -5 0 -10 7 -10 16 0 8 5 12 10 9 6 -3 10
-10 10 -16z m2597 -11 c-3 -7 -5 -2 -5 12 0 14 2 19 5 13 2 -7 2 -19 0 -25z
m-2046 -18 c6 -16 26 -39 45 -51 19 -11 34 -25 34 -31 0 -11 -78 -1 -95 12
-10 8 -8 100 2 100 2 0 9 -13 14 -30z m-91 -51 c0 -4 -25 -14 -55 -24 -58 -18
-69 -31 -32 -40 55 -12 62 -10 61 11 0 15 5 21 15 19 9 -2 23 -4 31 -4 11 -1
11 -4 2 -13 -20 -20 -14 -38 13 -38 22 0 23 3 16 23 -8 22 -7 24 20 24 18 0
25 -3 17 -8 -18 -11 36 -23 70 -15 20 5 23 4 12 -4 -13 -9 -13 -11 0 -20 20
-13 40 -13 40 0 0 6 6 10 14 8 14 -3 16 0 16 21 0 5 -12 12 -27 14 -24 3 -22
4 8 6 20 0 39 -2 42 -5 4 -4 21 -8 39 -10 73 -6 116 -17 166 -40 47 -21 82
-30 82 -20 0 27 -27 67 -48 73 l-27 7 25 6 c32 9 34 6 60 -59 l21 -53 -38 6
c-21 4 -50 9 -65 12 -29 6 -39 -10 -13 -20 8 -3 15 -12 15 -21 0 -8 9 -15 20
-15 11 0 20 5 20 10 0 12 57 12 85 0 12 -5 14 -9 6 -9 -8 -1 -12 -3 -9 -6 3
-3 39 -8 79 -11 70 -4 76 -6 107 -42 50 -56 56 -70 29 -66 -215 35 -302 53
-464 95 -106 27 -241 64 -300 83 -59 18 -134 39 -165 46 -68 15 -81 37 -18 31
13 -2 13 0 1 8 -11 7 -5 19 30 60 l43 50 28 -32 c15 -18 27 -35 28 -38z m380
1 c35 -44 23 -55 -15 -14 -22 23 -33 54 -21 54 2 0 19 -18 36 -40z m1530 -40
c0 -9 -32 -30 -46 -30 -4 0 1 9 11 20 19 21 35 26 35 10z m286 -27 c-10 -10
-19 5 -10 18 6 11 8 11 12 0 2 -7 1 -15 -2 -18z m-1189 -24 c-1 -11 -9 -25
-19 -30 -14 -8 -16 -6 -11 8 6 18 23 43 29 43 1 0 2 -9 1 -21z m1130 5 c-3 -3
-12 -4 -19 -1 -8 3 -5 6 6 6 11 1 17 -2 13 -5z m-137 -14 c0 -5 -7 -10 -16
-10 -8 0 -12 5 -9 10 3 6 10 10 16 10 5 0 9 -4 9 -10z m-2414 -27 c-8 -8 -36
5 -36 17 0 7 6 7 21 0 11 -7 18 -14 15 -17z m362 -75 c19 -16 10 -19 -31 -7
-43 12 -52 35 -10 24 16 -4 34 -11 41 -17z m109 -4 l28 -25 -30 15 c-16 8 -37
20 -45 25 -13 9 -13 11 2 11 9 0 30 -11 45 -26z m2408 -324 c9 -16 14 -30 12
-30 -2 0 -13 14 -25 30 -13 17 -18 30 -13 30 6 0 17 -13 26 -30z"/>
<path d="M5055 9300 c-3 -5 -1 -10 4 -10 6 0 11 5 11 10 0 6 -2 10 -4 10 -3 0
-8 -4 -11 -10z"/>
<path d="M5711 9238 c-1 -24 4 -38 12 -38 9 0 8 -3 -2 -9 -9 -6 -10 -11 -2
-15 6 -4 16 -4 21 -1 15 9 12 33 -4 42 -8 4 -16 19 -19 33 -3 18 -5 15 -6 -12z"/>
<path d="M4340 9195 c-13 -14 -19 -25 -13 -25 5 0 20 11 33 25 13 14 19 25 13
25 -5 0 -20 -11 -33 -25z"/>
<path d="M6050 9145 c-11 -13 -8 -15 25 -15 25 0 35 4 33 13 -7 18 -43 20 -58
2z"/>
<path d="M4175 9141 c-3 -5 -1 -12 5 -16 5 -3 10 1 10 9 0 18 -6 21 -15 7z"/>
<path d="M4225 9140 c-3 -5 -1 -10 4 -10 6 0 11 5 11 10 0 6 -2 10 -4 10 -3 0
-8 -4 -11 -10z"/>
<path d="M3816 9041 c-15 -17 -15 -19 0 -31 13 -12 17 -11 25 1 11 18 12 49 1
49 -5 0 -16 -8 -26 -19z"/>
<path d="M3582 8988 c-27 -27 5 -73 38 -53 20 12 4 65 -20 65 -3 0 -11 -5 -18
-12z"/>
<path d="M6935 8850 c-3 -5 -1 -10 4 -10 6 0 11 5 11 10 0 6 -2 10 -4 10 -3 0
-8 -4 -11 -10z"/>
<path d="M3326 8843 c-3 -3 -3 -10 0 -14 7 -12 34 -11 34 0 0 11 -26 22 -34
14z"/>
<path d="M3254 8829 c-13 -22 12 -30 31 -9 18 19 18 20 -3 20 -11 0 -24 -5
-28 -11z"/>
<path d="M3144 8756 c3 -14 2 -28 -4 -31 -5 -3 -10 -11 -10 -16 0 -6 18 5 39
23 41 34 38 45 -13 47 -14 1 -17 -4 -12 -23z m31 4 c3 -5 2 -10 -4 -10 -5 0
-13 5 -16 10 -3 6 -2 10 4 10 5 0 13 -4 16 -10z"/>
<path d="M7190 8704 c0 -8 5 -12 10 -9 6 4 8 11 5 16 -9 14 -15 11 -15 -7z"/>
<path d="M3075 8665 c-3 -8 -7 -22 -10 -31 -3 -8 -1 -13 4 -10 5 3 11 17 13
31 6 27 0 34 -7 10z"/>
<path d="M6719 8596 c14 -14 31 -26 38 -26 21 0 6 18 -30 36 l-32 17 24 -27z"/>
<path d="M2760 8562 c0 -12 46 -32 54 -25 16 16 4 33 -24 33 -16 0 -30 -4 -30
-8z"/>
<path d="M7140 8402 c0 -13 34 -42 50 -42 10 0 10 3 0 16 -17 20 -50 37 -50
26z"/>
<path d="M2655 8390 c-3 -5 -2 -10 4 -10 5 0 13 5 16 10 3 6 2 10 -4 10 -5 0
-13 -4 -16 -10z"/>
<path d="M2620 8379 c0 -5 5 -7 10 -4 6 3 10 8 10 11 0 2 -4 4 -10 4 -5 0 -10
-5 -10 -11z"/>
<path d="M7757 8326 c-4 -10 -5 -21 -2 -24 9 -9 17 6 13 25 -3 17 -4 17 -11
-1z"/>
<path d="M7845 8200 c3 -5 14 -10 23 -10 15 0 15 2 2 10 -20 13 -33 13 -25 0z"/>
<path d="M7600 8090 c6 -11 13 -20 16 -20 2 0 0 9 -6 20 -6 11 -13 20 -16 20
-2 0 0 -9 6 -20z"/>
<path d="M8050 8100 c0 -5 5 -10 10 -10 6 0 10 5 10 10 0 6 -4 10 -10 10 -5 0
-10 -4 -10 -10z"/>
<path d="M2217 8046 c-4 -10 -1 -13 9 -9 15 6 19 23 5 23 -5 0 -11 -7 -14 -14z"/>
<path d="M8060 8010 c0 -5 5 -10 10 -10 6 0 10 5 10 10 0 6 -4 10 -10 10 -5 0
-10 -4 -10 -10z"/>
<path d="M2156 7964 c-9 -24 -7 -28 9 -14 17 14 20 30 6 30 -5 0 -12 -7 -15
-16z"/>
<path d="M2111 7887 c-20 -20 -11 -32 24 -32 19 0 35 0 35 1 0 0 -11 10 -24
21 -17 15 -27 18 -35 10z"/>
<path d="M8180 7810 c0 -5 5 -10 11 -10 5 0 7 5 4 10 -3 6 -8 10 -11 10 -2 0
-4 -4 -4 -10z"/>
<path d="M7171 7724 c0 -11 3 -14 6 -6 3 7 2 16 -1 19 -3 4 -6 -2 -5 -13z"/>
<path d="M1935 7659 c-10 -16 1 -22 26 -14 17 6 19 9 8 16 -19 12 -26 11 -34
-2z"/>
<path d="M8340 7630 c0 -5 7 -10 15 -10 8 0 15 5 15 10 0 6 -7 10 -15 10 -8 0
-15 -4 -15 -10z"/>
<path d="M8410 7570 c0 -5 9 -10 20 -10 11 0 20 5 20 10 0 6 -9 10 -20 10 -11
0 -20 -4 -20 -10z"/>
<path d="M1765 7540 c-3 -5 1 -10 9 -10 8 0 18 5 21 10 3 6 -1 10 -9 10 -8 0
-18 -4 -21 -10z"/>
<path d="M7327 7533 c22 -17 33 -16 33 1 0 9 -10 13 -25 12 -23 -1 -24 -2 -8
-13z"/>
<path d="M1816 7449 c-19 -19 -19 -19 1 -19 22 0 47 23 36 33 -10 10 -16 8
-37 -14z"/>
<path d="M8530 7412 c0 -10 22 -32 32 -32 15 0 8 15 -12 28 -11 7 -20 9 -20 4z"/>
<path d="M1755 7391 c-7 -12 12 -24 25 -16 11 7 4 25 -10 25 -5 0 -11 -4 -15
-9z"/>
<path d="M1706 7341 c-4 -7 -5 -15 -2 -18 9 -9 19 4 14 18 -4 11 -6 11 -12 0z"/>
<path d="M8260 7291 c0 -7 5 -21 11 -32 8 -16 6 -23 -13 -39 -13 -11 -29 -19
-35 -20 -7 0 -13 -9 -13 -20 0 -12 -5 -17 -14 -14 -13 5 -85 -41 -226 -144
-105 -77 -345 -322 -377 -386 -23 -44 -25 -58 -20 -119 6 -64 11 -76 68 -160
88 -129 107 -163 182 -327 79 -174 120 -279 113 -295 -2 -7 4 -19 14 -28 23
-20 37 -84 21 -100 -14 -14 -14 -37 -1 -37 6 0 10 8 11 18 0 14 2 14 9 -3 14
-34 40 -128 45 -165 29 -221 33 -292 15 -298 -18 -6 -11 -25 21 -52 29 -24 32
-32 37 -101 7 -115 -13 -171 -93 -258 -36 -39 -65 -75 -65 -81 0 -23 51 -40
150 -49 92 -9 107 -8 123 6 16 16 17 16 12 1 -5 -13 1 -18 32 -23 32 -5 158
-35 216 -52 12 -4 17 0 18 13 0 16 2 16 11 -4 6 -12 27 -32 47 -44 58 -35 209
-157 235 -190 13 -17 28 -28 33 -25 5 3 15 31 22 62 7 30 19 62 27 70 13 13
13 15 1 15 -12 0 -12 10 0 78 8 42 16 142 18 221 2 81 8 147 14 150 10 7 17
422 8 451 -14 40 -17 163 -5 178 9 11 9 14 1 9 -8 -5 -14 3 -17 25 -33 197
-47 297 -42 318 8 43 -112 471 -186 660 -42 108 -260 550 -269 545 -3 -3 -12
2 -18 9 -10 11 -8 16 7 20 19 6 19 7 1 43 -11 21 -19 49 -19 63 -1 34 -36 110
-52 110 -7 0 -23 3 -35 6 -15 4 -23 2 -23 -5z m58 -85 c3 -22 0 -27 -15 -24
-16 3 -19 11 -14 49 2 22 26 2 29 -25z m-63 -176 c-3 -5 -15 -6 -28 -3 -19 4
-20 3 -4 -7 29 -19 19 -30 -13 -12 -30 18 -29 27 5 34 25 5 47 -1 40 -12z
m-40 -114 c-9 -14 -31 -29 -48 -35 l-32 -11 40 35 c47 40 62 45 40 11z m181
-42 c-8 -27 -15 -42 -15 -33 -1 9 -10 27 -20 40 l-19 24 32 10 c17 6 32 10 34
9 2 -1 -3 -24 -12 -50z m-240 -64 c8 0 14 -7 14 -17 0 -14 -2 -14 -20 2 -11
10 -20 23 -19 29 0 6 3 6 6 -1 2 -7 11 -13 19 -13z m146 -74 c29 -40 31 -59 3
-36 -22 18 -45 65 -44 87 0 14 2 15 6 3 4 -8 19 -32 35 -54z m58 28 c0 -8 -4
-12 -10 -9 -5 3 -10 13 -10 21 0 8 5 12 10 9 6 -3 10 -13 10 -21z m80 -69 c0
-7 -8 -19 -17 -26 -11 -10 -14 -10 -9 -1 4 6 3 12 -3 12 -5 0 -12 -8 -14 -17
-3 -13 -5 -11 -6 6 -1 19 3 22 19 18 11 -3 20 -1 20 4 0 5 -4 9 -10 9 -5 0
-10 4 -10 10 0 5 7 7 15 4 8 -4 15 -12 15 -19z m-384 -52 c-10 -10 -19 5 -10
18 6 11 8 11 12 0 2 -7 1 -15 -2 -18z m434 -35 c0 -16 -3 -19 -11 -11 -6 6 -8
16 -5 22 11 17 16 13 16 -11z m-46 -123 c5 -22 4 -26 -4 -15 -5 8 -10 24 -10
34 0 26 6 18 14 -19z m-594 15 c0 -5 -2 -10 -4 -10 -3 0 -8 5 -11 10 -3 6 -1
10 4 10 6 0 11 -4 11 -10z m220 -52 c0 -5 -4 -8 -10 -8 -9 0 -40 51 -40 67 0
10 49 -49 50 -59z m180 6 c0 -8 -4 -12 -10 -9 -5 3 -10 10 -10 16 0 5 5 9 10
9 6 0 10 -7 10 -16z m356 1 c10 -8 14 -15 8 -15 -5 0 -19 7 -30 15 -10 8 -14
15 -8 15 5 0 19 -7 30 -15z m-656 -16 c0 -11 -4 -17 -10 -14 -5 3 -10 13 -10
21 0 8 5 14 10 14 6 0 10 -9 10 -21z m540 11 c0 -5 -2 -10 -4 -10 -3 0 -8 5
-11 10 -3 6 -1 10 4 10 6 0 11 -4 11 -10z m-770 -40 c0 -5 -4 -10 -10 -10 -5
0 -10 5 -10 10 0 6 5 10 10 10 6 0 10 -4 10 -10z m236 -137 c-4 -4 -11 -1 -16
7 -16 25 -11 35 7 17 9 -9 13 -20 9 -24z m689 -23 c7 -12 -12 -40 -27 -40 -6
0 -7 7 -4 16 3 8 2 12 -4 9 -6 -3 -10 1 -10 9 0 18 35 22 45 6z m-515 -18 c0
-14 -11 -21 -26 -15 -21 8 -17 23 6 23 11 0 20 -4 20 -8z m496 -199 c-10 -10
-19 5 -10 18 6 11 8 11 12 0 2 -7 1 -15 -2 -18z m-571 -33 c-5 -8 -11 -8 -17
-2 -6 6 -7 16 -3 22 5 8 11 8 17 2 6 -6 7 -16 3 -22z m223 -55 c-2 -2 -15 -1
-30 2 -32 6 -38 23 -9 23 11 0 23 6 28 13 5 8 9 5 11 -11 2 -13 2 -25 0 -27z
m547 -15 c-3 -5 -18 -10 -33 -9 -24 0 -25 1 -7 9 28 12 47 12 40 0z m-120 -39
c3 -5 1 -13 -5 -16 -15 -9 -43 3 -35 15 8 13 32 13 40 1z m-648 -7 c-3 -3 -12
-4 -19 -1 -8 3 -5 6 6 6 11 1 17 -2 13 -5z m101 -15 c16 -5 32 -19 35 -30 3
-10 4 -19 2 -19 -11 0 -75 43 -75 51 0 11 1 11 38 -2z m366 -45 c3 -8 2 -12
-4 -9 -6 3 -10 10 -10 16 0 14 7 11 14 -7z m-151 -411 c48 3 64 2 49 -4 -13
-5 -33 -16 -45 -25 -21 -16 -21 -16 13 -10 19 3 81 20 138 38 72 22 102 36
102 47 1 37 20 -19 34 -100 10 -59 12 -98 5 -132 -11 -59 -19 -74 -29 -57 -5
8 -15 10 -26 5 -18 -7 -18 -8 1 -15 22 -8 34 -6 -155 -39 -108 -20 -134 -17
-144 16 -8 26 -46 290 -46 316 1 18 4 15 16 -12 l14 -34 73 6z m397 -43 c0 -5
-5 -10 -11 -10 -5 0 -7 5 -4 10 3 6 8 10 11 10 2 0 4 -4 4 -10z m40 -50 c0 -5
-5 -10 -11 -10 -5 0 -7 5 -4 10 3 6 8 10 11 10 2 0 4 -4 4 -10z m-655 -70 c-3
-5 -18 -10 -33 -9 l-27 1 25 8 c35 11 42 11 35 0z m629 -219 c-6 -39 -8 -41
-43 -41 -29 0 -44 -8 -71 -35 -40 -41 -72 -51 -194 -61 -67 -5 -94 -12 -107
-25 -11 -11 -19 -16 -19 -11 0 11 -20 134 -25 159 -4 19 -2 18 25 -9 31 -30
31 -30 113 -24 179 15 297 47 312 83 10 28 16 7 9 -36z m58 37 c-9 -9 -15 -9
-24 0 -9 9 -7 12 12 12 19 0 21 -3 12 -12z m65 -190 c-3 -7 -5 -2 -5 12 0 14
2 19 5 13 2 -7 2 -19 0 -25z m-214 -23 c-3 -9 -8 -14 -10 -11 -3 3 -2 9 2 15
9 16 15 13 8 -4z m-13 -55 c0 -20 -5 -30 -15 -30 -8 0 -15 5 -15 11 0 5 5 7
10 4 6 -4 10 5 10 19 0 14 2 26 5 26 3 0 5 -13 5 -30z m-73 -95 c-4 -8 -14
-15 -23 -15 -16 0 -16 2 1 20 20 22 31 20 22 -5z m-45 -73 c-6 -40 20 -48 57
-17 35 30 61 32 92 7 28 -23 20 -52 -15 -52 -14 0 -28 -4 -31 -10 -4 -6 5 -10
19 -10 16 0 26 -6 26 -14 0 -15 -74 -86 -89 -86 -21 0 -20 20 1 39 12 12 17
21 11 21 -7 0 -19 -7 -27 -16 -10 -9 -24 -13 -36 -9 -27 9 -16 25 17 25 21 0
23 2 13 15 -6 8 -9 19 -5 25 4 6 3 9 -2 8 -4 -1 -23 6 -41 16 -29 15 -33 21
-27 44 14 55 45 67 37 14z"/>
<path d="M8462 5320 c-108 -29 -126 -39 -130 -77 -5 -53 22 -59 148 -33 122
25 150 39 150 78 0 57 -42 65 -168 32z"/>
<path d="M2010 7254 c0 -9 -20 -43 -45 -76 -25 -33 -71 -106 -102 -161 -31
-56 -64 -110 -72 -120 -9 -10 -32 -62 -51 -115 -32 -88 -38 -97 -63 -100 -27
-3 -27 -4 -11 -31 15 -25 15 -29 -6 -66 -12 -21 -34 -62 -48 -89 -14 -28 -39
-68 -55 -88 -29 -36 -29 -37 -11 -61 11 -14 33 -30 49 -36 29 -9 29 -10 -7 -4
-34 5 -39 3 -49 -23 -21 -55 -98 -369 -115 -474 -16 -97 -27 -125 -45 -114 -4
2 -10 0 -14 -6 -3 -6 3 -10 16 -10 19 0 21 -4 16 -37 -4 -21 -14 -121 -23
-223 -17 -195 -15 -465 6 -660 33 -309 131 -789 171 -837 8 -9 43 -13 127 -13
l115 0 -23 24 c-12 14 -20 31 -17 39 3 8 48 38 100 66 122 68 169 107 165 135
-2 13 -9 19 -18 17 -8 -2 -42 -3 -75 -2 -58 2 -171 -21 -189 -39 -4 -4 -11
-23 -15 -42 -7 -31 -9 -28 -37 59 l-29 92 26 -6 c15 -3 67 4 117 16 49 12 110
21 135 21 68 0 103 33 100 95 -3 77 8 44 17 -52 10 -112 73 -284 107 -293 19
-4 20 -7 7 -24 -11 -16 -14 -17 -14 -4 0 42 -133 33 -226 -15 -51 -26 -62 -77
-16 -77 27 0 474 70 480 75 2 2 -13 46 -32 99 -20 52 -49 162 -66 243 -16 81
-34 162 -39 180 -22 74 -33 253 -25 390 5 76 8 169 7 207 -4 119 64 467 129
661 53 158 107 278 181 400 107 177 132 259 121 395 l-7 80 -43 0 c-48 0 -52
6 -29 50 9 18 30 34 60 45 43 17 45 20 45 56 0 43 14 30 -172 157 -208 141
-482 312 -501 312 -4 0 -7 -7 -7 -16z m314 -225 c-3 -5 -10 -7 -15 -3 -5 3 -7
10 -3 15 3 5 10 7 15 3 5 -3 7 -10 3 -15z m-267 -91 c-3 -8 -6 -5 -6 6 -1 11
2 17 5 13 3 -3 4 -12 1 -19z m-161 -113 c-11 -8 -25 -15 -30 -15 -6 0 -2 7 8
15 11 8 25 15 30 15 6 0 2 -7 -8 -15z m241 -150 c9 -25 -2 -27 -22 -5 -17 18
-17 20 -1 20 9 0 19 -7 23 -15z m-457 -160 c0 -19 -4 -35 -9 -35 -14 0 -22 29
-10 36 6 3 8 12 5 20 -3 8 -1 14 4 14 6 0 10 -16 10 -35z m-109 -128 l-23 -22
17 28 c10 15 20 25 23 22 3 -3 -5 -16 -17 -28z m116 -149 c-3 -8 -6 -5 -6 6
-1 11 2 17 5 13 3 -3 4 -12 1 -19z m721 -13 c-3 -3 -9 2 -12 12 -6 14 -5 15 5
6 7 -7 10 -15 7 -18z m-648 -105 c0 -5 -5 -10 -11 -10 -5 0 -7 5 -4 10 3 6 8
10 11 10 2 0 4 -4 4 -10z m-224 -287 c-10 -10 -19 5 -10 18 6 11 8 11 12 0 2
-7 1 -15 -2 -18z m587 -221 c26 -23 21 -32 -12 -19 -15 5 -35 8 -43 4 -15 -5
-40 -63 -53 -120 -5 -24 -7 -26 -20 -13 -15 15 -21 16 -140 37 -38 6 -76 15
-83 18 -7 4 38 22 100 41 62 19 135 44 162 56 50 23 57 23 89 -4z m-328 -279
l166 -26 29 22 30 22 -4 -23 c-3 -13 -5 -35 -5 -49 -1 -14 -7 -33 -13 -42 -12
-16 -23 -16 -162 3 -227 31 -249 27 -267 -40 -9 -38 -9 -41 7 133 l7 68 23
-22 c18 -17 55 -26 189 -46z m364 -15 c-1 -47 -3 -57 -9 -38 -12 36 -12 100 0
100 6 0 10 -27 9 -62z m-651 -110 c-3 -7 -13 -15 -24 -17 -16 -3 -17 -1 -5 13
16 19 34 21 29 4z m652 -28 c-24 -15 -36 -11 -14 4 10 8 21 12 24 10 2 -3 -2
-9 -10 -14z m-546 -108 c18 -8 82 -12 187 -12 l159 0 20 33 20 32 0 -105 c0
-97 -1 -103 -16 -82 -15 21 -21 22 -194 22 -198 0 -216 -5 -208 -61 3 -15 1
-26 -3 -23 -8 5 -16 80 -22 207 l-4 78 17 -38 c10 -22 29 -44 44 -51z m316 74
c0 -3 -4 -8 -10 -11 -5 -3 -10 -1 -10 4 0 6 5 11 10 11 6 0 10 -2 10 -4z m20
-296 c-8 -5 -19 -10 -25 -10 -5 0 -3 5 5 10 8 5 20 10 25 10 6 0 3 -5 -5 -10z
m-360 -80 c0 -5 -2 -10 -4 -10 -3 0 -8 5 -11 10 -3 6 -1 10 4 10 6 0 11 -4 11
-10z m418 -172 c-3 -55 -8 -72 -28 -93 -19 -20 -215 -126 -322 -173 -5 -2 -8
5 -8 15 0 10 -9 45 -19 78 -10 33 -22 84 -26 113 -7 50 -5 56 21 83 33 34 24
52 -10 20 l-23 -22 -7 42 c-4 23 -5 44 -3 46 3 2 89 9 193 15 104 5 195 15
202 20 6 6 13 18 13 27 4 48 19 -114 17 -171z"/>
<path d="M1778 4624 c-125 -30 -158 -63 -143 -140 l6 -37 53 6 c57 6 230 69
258 94 24 22 23 69 -1 83 -27 14 -104 11 -173 -6z"/>
<path d="M1890 7200 c0 -5 5 -10 11 -10 5 0 7 5 4 10 -3 6 -8 10 -11 10 -2 0
-4 -4 -4 -10z"/>
<path d="M8664 7164 c3 -9 9 -27 12 -40 3 -13 10 -24 15 -24 12 0 12 1 -6 44
-15 34 -34 53 -21 20z"/>
<path d="M1540 7036 c0 -8 5 -18 10 -21 6 -3 10 3 10 14 0 12 -4 21 -10 21 -5
0 -10 -6 -10 -14z"/>
<path d="M8825 7010 c3 -5 8 -10 11 -10 2 0 4 5 4 10 0 6 -5 10 -11 10 -5 0
-7 -4 -4 -10z"/>
<path d="M7825 6980 c3 -5 11 -10 16 -10 6 0 7 5 4 10 -3 6 -11 10 -16 10 -6
0 -7 -4 -4 -10z"/>
<path d="M1357 6824 c-4 -4 -4 -10 -2 -14 6 -10 45 0 45 11 0 10 -33 12 -43 3z"/>
<path d="M7595 6740 c-3 -5 -2 -10 4 -10 5 0 13 5 16 10 3 6 2 10 -4 10 -5 0
-13 -4 -16 -10z"/>
<path d="M1350 6701 c-12 -24 -13 -41 -2 -41 8 0 32 43 32 55 0 13 -21 3 -30
-14z"/>
<path d="M1620 6711 c0 -5 11 -8 25 -8 14 0 28 3 31 8 3 5 -9 9 -25 9 -17 0
-31 -4 -31 -9z"/>
<path d="M8928 6603 c6 -2 18 -2 25 0 6 3 1 5 -13 5 -14 0 -19 -2 -12 -5z"/>
<path d="M1315 6540 c3 -5 8 -10 11 -10 2 0 4 5 4 10 0 6 -5 10 -11 10 -5 0
-7 -4 -4 -10z"/>
<path d="M1180 6414 c0 -3 6 -12 14 -20 11 -10 17 -11 22 -3 3 6 0 15 -7 20
-16 10 -29 12 -29 3z"/>
<path d="M1193 6313 c-3 -10 -8 -21 -10 -25 -2 -5 1 -8 6 -8 6 0 11 7 11 15 0
8 5 15 10 15 6 0 10 5 10 10 0 17 -20 11 -27 -7z"/>
<path d="M8800 6260 c0 -5 5 -10 11 -10 5 0 7 5 4 10 -3 6 -8 10 -11 10 -2 0
-4 -4 -4 -10z"/>
<path d="M9115 6210 c-3 -6 1 -13 10 -16 19 -8 30 0 20 15 -8 14 -22 14 -30 1z"/>
<path d="M1202 6190 c0 -14 2 -19 5 -12 2 6 2 18 0 25 -3 6 -5 1 -5 -13z"/>
<path d="M2676 6174 c-17 -16 -17 -18 6 -30 19 -10 24 -10 26 1 2 8 -1 22 -6
31 -8 14 -10 14 -26 -2z"/>
<path d="M1136 6141 c-4 -5 -3 -17 1 -27 6 -16 7 -16 20 2 7 10 13 21 13 26 0
11 -27 10 -34 -1z"/>
<path d="M9100 6119 c0 -5 5 -7 10 -4 6 3 10 8 10 11 0 2 -4 4 -10 4 -5 0 -10
-5 -10 -11z"/>
<path d="M2625 6040 c3 -5 15 -10 26 -10 11 0 17 5 14 10 -3 6 -15 10 -26 10
-11 0 -17 -4 -14 -10z"/>
<path d="M2500 6025 c-8 -9 -8 -15 -2 -15 12 0 26 19 19 26 -2 2 -10 -2 -17
-11z"/>
<path d="M7595 6020 c-3 -5 1 -10 10 -10 9 0 13 -4 10 -10 -3 -5 -1 -10 4 -10
15 0 14 15 -3 29 -10 8 -16 9 -21 1z"/>
<path d="M7585 5990 c3 -5 8 -10 11 -10 2 0 4 5 4 10 0 6 -5 10 -11 10 -5 0
-7 -4 -4 -10z"/>
<path d="M9170 5950 c0 -5 5 -10 10 -10 6 0 10 5 10 10 0 6 -4 10 -10 10 -5 0
-10 -4 -10 -10z"/>
<path d="M1120 5920 c0 -5 5 -10 11 -10 5 0 7 5 4 10 -3 6 -8 10 -11 10 -2 0
-4 -4 -4 -10z"/>
<path d="M1405 5910 c3 -5 10 -10 16 -10 5 0 9 5 9 10 0 6 -7 10 -16 10 -8 0
-12 -4 -9 -10z"/>
<path d="M2490 5870 c0 -5 5 -10 11 -10 5 0 7 5 4 10 -3 6 -8 10 -11 10 -2 0
-4 -4 -4 -10z"/>
<path d="M2765 5870 c-3 -5 -2 -10 4 -10 5 0 13 5 16 10 3 6 2 10 -4 10 -5 0
-13 -4 -16 -10z"/>
<path d="M2710 5862 c0 -14 11 -21 26 -15 8 3 11 9 8 14 -7 11 -34 12 -34 1z"/>
<path d="M7544 5817 c6 -46 21 -67 47 -67 23 0 24 13 2 31 -9 8 -25 28 -36 44
l-19 30 6 -38z"/>
<path d="M2823 5775 c28 -25 57 -33 57 -16 0 9 -61 41 -77 41 -4 0 5 -12 20
-25z"/>
<path d="M7770 5690 c0 -5 5 -10 11 -10 5 0 7 5 4 10 -3 6 -8 10 -11 10 -2 0
-4 -4 -4 -10z"/>
<path d="M7936 5675 c4 -8 10 -12 15 -9 11 6 2 24 -11 24 -5 0 -7 -7 -4 -15z"/>
<path d="M7411 5634 c-11 -31 -11 -38 0 -45 8 -5 19 -7 24 -6 16 5 17 50 3 70
-12 17 -15 15 -27 -19z"/>
<path d="M8931 5644 c0 -11 3 -14 6 -6 3 7 2 16 -1 19 -3 4 -6 -2 -5 -13z"/>
<path d="M9215 5640 c4 -7 2 -16 -6 -21 -11 -7 -10 -9 4 -9 19 0 23 25 5 36
-7 5 -8 3 -3 -6z"/>
<path d="M7906 5614 c-9 -8 -16 -17 -16 -19 0 -9 44 13 48 23 5 17 -14 15 -32
-4z"/>
<path d="M7633 5613 c-20 -7 -15 -23 7 -23 11 0 20 4 20 9 0 13 -12 19 -27 14z"/>
<path d="M7875 5570 c3 -5 8 -10 11 -10 2 0 4 5 4 10 0 6 -5 10 -11 10 -5 0
-7 -4 -4 -10z"/>
<path d="M9177 5573 c-13 -12 -7 -22 9 -16 13 5 15 2 9 -17 -5 -15 -4 -20 4
-16 6 4 11 13 11 20 0 17 -25 38 -33 29z"/>
<path d="M7925 5543 c-5 -14 -3 -15 6 -6 6 6 18 9 27 6 10 -4 13 -2 8 5 -11
18 -33 14 -41 -5z"/>
<path d="M7920 5509 c0 -5 5 -7 10 -4 6 3 10 8 10 11 0 2 -4 4 -10 4 -5 0 -10
-5 -10 -11z"/>
<path d="M7985 5490 c3 -5 11 -10 16 -10 6 0 7 5 4 10 -3 6 -11 10 -16 10 -6
0 -7 -4 -4 -10z"/>
<path d="M3120 5438 c0 -35 12 -48 44 -48 17 0 36 4 42 8 10 6 34 45 34 54 0
2 -27 3 -60 3 -49 0 -60 -3 -60 -17z"/>
<path d="M9205 5450 c-3 -5 -1 -10 4 -10 6 0 11 5 11 10 0 6 -2 10 -4 10 -3 0
-8 -4 -11 -10z"/>
<path d="M7987 5433 c-10 -10 -8 -23 4 -23 5 0 8 4 5 9 -4 5 0 12 6 14 7 3 8
6 2 6 -6 1 -14 -2 -17 -6z"/>
<path d="M7825 5419 c-9 -14 -2 -20 14 -10 8 6 9 11 3 15 -6 3 -14 1 -17 -5z"/>
<path d="M7912 5368 c-16 -16 -15 -48 2 -48 16 0 32 20 32 39 -1 19 -19 24
-34 9z m18 -18 c0 -5 -5 -10 -11 -10 -5 0 -7 5 -4 10 3 6 8 10 11 10 2 0 4 -4
4 -10z"/>
<path d="M8000 5370 c0 -5 5 -10 10 -10 6 0 10 5 10 10 0 6 -4 10 -10 10 -5 0
-10 -4 -10 -10z"/>
<path d="M7840 5283 l-55 -23 50 6 c68 9 86 16 71 29 -8 7 -28 4 -66 -12z"/>
<path d="M7995 5300 c-3 -5 1 -10 9 -10 9 0 16 5 16 10 0 6 -4 10 -9 10 -6 0
-13 -4 -16 -10z"/>
<path d="M2670 5290 c0 -15 21 -23 32 -12 6 6 2 11 -11 15 -12 3 -21 1 -21 -3z"/>
<path d="M2610 5279 c0 -5 5 -7 10 -4 6 3 10 8 10 11 0 2 -4 4 -10 4 -5 0 -10
-5 -10 -11z"/>
<path d="M7680 5265 c0 -8 4 -15 10 -15 5 0 7 7 4 15 -4 8 -8 15 -10 15 -2 0
-4 -7 -4 -15z"/>
<path d="M7680 5229 c0 -5 5 -7 10 -4 6 3 10 8 10 11 0 2 -4 4 -10 4 -5 0 -10
-5 -10 -11z"/>
<path d="M7730 5199 c6 -10 22 -22 36 -25 41 -11 39 3 -5 24 -39 19 -40 19
-31 1z"/>
<path d="M2606 5197 c3 -10 9 -15 12 -12 3 3 0 11 -7 18 -10 9 -11 8 -5 -6z"/>
<path d="M2676 5174 c-4 -9 -4 -19 -1 -22 3 -3 11 0 17 6 9 9 9 15 1 23 -7 7
-12 5 -17 -7z"/>
<path d="M7907 5184 c-9 -10 2 -24 19 -24 8 0 14 7 14 15 0 15 -21 21 -33 9z"/>
<path d="M2300 5145 c0 -8 10 -23 22 -35 40 -37 52 -21 17 24 -23 29 -39 34
-39 11z"/>
<path d="M2636 5135 c4 -8 11 -15 16 -15 6 0 5 6 -2 15 -7 8 -14 15 -16 15 -2
0 -1 -7 2 -15z"/>
<path d="M1315 5120 c-3 -5 -1 -10 4 -10 6 0 11 5 11 10 0 6 -2 10 -4 10 -3 0
-8 -4 -11 -10z"/>
<path d="M2690 5090 c0 -5 7 -10 16 -10 8 0 12 5 9 10 -3 6 -10 10 -16 10 -5
0 -9 -4 -9 -10z"/>
<path d="M2775 5010 c3 -5 8 -10 11 -10 2 0 4 5 4 10 0 6 -5 10 -11 10 -5 0
-7 -4 -4 -10z"/>
<path d="M3214 5008 c-4 -6 0 -16 8 -22 9 -6 17 -20 19 -31 3 -14 15 -21 42
-26 43 -7 45 0 16 47 -26 42 -35 45 -14 4 12 -23 12 -30 3 -30 -22 0 -41 17
-33 29 7 12 -11 41 -26 41 -4 0 -11 -5 -15 -12z"/>
<path d="M9277 5014 c-8 -8 3 -34 14 -34 5 0 9 9 9 20 0 19 -11 26 -23 14z"/>
<path d="M2690 4990 c0 -5 5 -10 10 -10 6 0 10 5 10 10 0 6 -4 10 -10 10 -5 0
-10 -4 -10 -10z"/>
<path d="M3008 4973 c7 -3 16 -2 19 1 4 3 -2 6 -13 5 -11 0 -14 -3 -6 -6z"/>
<path d="M2295 4940 c3 -5 12 -10 20 -10 8 0 17 5 20 10 4 6 -5 10 -20 10 -15
0 -24 -4 -20 -10z"/>
<path d="M3105 4909 c-4 -6 -4 -13 -1 -16 8 -8 36 5 36 17 0 13 -27 13 -35 -1z"/>
<path d="M2420 4900 c0 -13 11 -13 30 0 12 8 11 10 -7 10 -13 0 -23 -4 -23
-10z"/>
<path d="M2664 4892 c11 -12 27 -22 38 -22 23 0 24 16 1 23 -10 2 -27 8 -38
13 -20 7 -20 7 -1 -14z"/>
<path d="M3580 4871 c0 -14 44 -74 59 -79 18 -6 9 20 -22 58 -22 29 -37 37
-37 21z"/>
<path d="M3388 4843 c-10 -2 -18 -9 -18 -15 0 -6 10 -8 23 -4 12 3 32 6 45 6
12 0 22 5 22 10 0 10 -40 12 -72 3z"/>
<path d="M3540 4829 c0 -5 9 -9 20 -9 11 0 20 2 20 4 0 2 -9 6 -20 9 -11 3
-20 1 -20 -4z"/>
<path d="M2457 4823 c-26 -4 -46 -27 -34 -39 9 -9 84 15 97 31 13 16 1 17 -63
8z"/>
<path d="M8970 4810 c0 -5 7 -10 16 -10 8 0 12 5 9 10 -3 6 -10 10 -16 10 -5
0 -9 -4 -9 -10z"/>
<path d="M3096 4785 c-23 -34 -20 -38 14 -20 19 10 27 20 24 30 -9 21 -19 19
-38 -10z"/>
<path d="M3287 4784 c-4 -4 -7 -14 -7 -23 0 -11 3 -12 11 -4 6 6 10 16 7 23
-2 6 -7 8 -11 4z"/>
<path d="M2403 4738 c-23 -30 -24 -41 -2 -21 12 12 20 25 17 28 -3 3 -10 0
-15 -7z"/>
<path d="M9220 4740 c0 -5 5 -10 11 -10 5 0 7 5 4 10 -3 6 -8 10 -11 10 -2 0
-4 -4 -4 -10z"/>
<path d="M2515 4720 c3 -5 11 -10 16 -10 6 0 7 5 4 10 -3 6 -11 10 -16 10 -6
0 -7 -4 -4 -10z"/>
<path d="M2438 4703 c-22 -6 -31 -32 -13 -39 18 -7 45 13 45 32 0 14 -3 15
-32 7z"/>
<path d="M1330 4680 c0 -5 7 -10 15 -10 8 0 15 5 15 10 0 6 -7 10 -15 10 -8 0
-15 -4 -15 -10z"/>
<path d="M2248 4683 c7 -3 16 -2 19 1 4 3 -2 6 -13 5 -11 0 -14 -3 -6 -6z"/>
<path d="M2325 4667 c-10 -8 -14 -17 -9 -20 6 -3 15 3 22 14 14 23 12 24 -13
6z"/>
<path d="M2900 4666 c0 -2 7 -6 15 -10 8 -3 15 -1 15 4 0 6 -7 10 -15 10 -8 0
-15 -2 -15 -4z"/>
<path d="M3270 4655 c-9 -11 -22 -14 -42 -10 -34 8 -35 -3 -3 -34 31 -29 51
-22 60 19 8 37 3 46 -15 25z"/>
<path d="M1100 4643 c0 -13 5 -23 10 -23 13 0 13 11 0 30 -8 12 -10 11 -10 -7z"/>
<path d="M2537 4644 c-16 -16 -6 -34 19 -34 19 0 25 5 22 17 -3 19 -29 29 -41
17z"/>
<path d="M2387 4623 c-14 -13 -7 -43 11 -43 12 0 14 2 4 8 -7 5 -10 16 -6 25
6 18 2 22 -9 10z"/>
<path d="M3077 4613 c-14 -13 -6 -23 18 -23 18 0 23 4 19 15 -6 16 -26 20 -37
8z"/>
<path d="M2260 4600 c0 -6 7 -10 15 -10 8 0 15 2 15 4 0 2 -7 6 -15 10 -8 3
-15 1 -15 -4z"/>
<path d="M1060 4576 c0 -8 5 -18 10 -21 6 -3 10 3 10 14 0 12 -4 21 -10 21 -5
0 -10 -6 -10 -14z"/>
<path d="M2850 4586 c0 -2 7 -6 15 -10 8 -3 15 -1 15 4 0 6 -7 10 -15 10 -8 0
-15 -2 -15 -4z"/>
<path d="M3401 4548 c-12 -33 -9 -44 7 -34 12 7 22 66 11 66 -4 0 -12 -14 -18
-32z"/>
<path d="M3245 4490 c3 -5 13 -10 21 -10 8 0 12 5 9 10 -3 6 -13 10 -21 10 -8
0 -12 -4 -9 -10z"/>
<path d="M3305 4411 c-17 -28 24 -42 45 -16 8 9 8 15 2 15 -6 0 -17 3 -25 6
-8 3 -18 1 -22 -5z"/>
<path d="M2728 4403 c7 -3 16 -2 19 1 4 3 -2 6 -13 5 -11 0 -14 -3 -6 -6z"/>
<path d="M3210 4330 c0 -5 7 -7 15 -4 8 4 15 8 15 10 0 2 -7 4 -15 4 -8 0 -15
-4 -15 -10z"/>
<path d="M9141 4256 c-8 -9 -11 -19 -7 -23 9 -9 29 13 24 27 -2 8 -8 7 -17 -4z"/>
<path d="M9178 4193 c7 -3 16 -2 19 1 4 3 -2 6 -13 5 -11 0 -14 -3 -6 -6z"/>
<path d="M2560 4150 c0 -5 5 -10 10 -10 6 0 10 5 10 10 0 6 -4 10 -10 10 -5 0
-10 -4 -10 -10z"/>
<path d="M2744 4135 c-4 -11 -14 -28 -22 -37 -14 -17 -12 -18 21 -18 40 0 45
10 22 50 -13 24 -14 24 -21 5z"/>
<path d="M2510 4061 c0 -5 7 -12 16 -15 24 -9 28 -7 14 9 -14 17 -30 20 -30 6z"/>
<path d="M1440 4040 c-12 -7 -12 -12 -2 -22 14 -14 35 1 24 19 -5 8 -13 9 -22
3z"/>
<path d="M1590 3830 c0 -5 9 -10 20 -10 11 0 20 5 20 10 0 6 -9 10 -20 10 -11
0 -20 -4 -20 -10z"/>
<path d="M5385 7110 c-3 -5 1 -10 10 -10 9 0 13 5 10 10 -3 6 -8 10 -10 10 -2
0 -7 -4 -10 -10z"/>
<path d="M5363 6815 c-3 -9 -3 -18 0 -21 9 -9 27 6 27 22 0 19 -19 18 -27 -1z"/>
<path d="M5960 6668 c0 -42 -15 -52 -34 -23 l-18 27 -22 -21 c-28 -27 -44 -26
-101 1 l-45 22 -67 -22 c-113 -36 -205 -47 -269 -33 -47 11 -58 10 -79 -3 -34
-23 -57 -71 -53 -114 3 -36 4 -37 37 -34 63 5 70 -6 27 -42 -35 -29 -40 -38
-44 -89 -5 -67 -2 -68 77 -32 30 14 55 24 57 22 2 -1 -21 -27 -51 -57 -30 -30
-55 -58 -55 -62 0 -4 25 -6 55 -5 44 2 58 7 71 25 13 18 81 62 98 62 2 0 4
-16 4 -36 0 -82 106 -117 185 -62 39 28 49 51 37 84 -6 15 -8 29 -6 32 6 5
116 -59 116 -68 0 -3 -16 -15 -36 -28 -20 -13 -34 -25 -32 -27 9 -10 76 17 94
36 19 21 19 21 -19 54 l-38 33 58 -13 c32 -6 73 -19 91 -29 36 -18 41 -9 16
29 -38 58 -158 119 -279 141 l-40 7 100 33 c120 40 202 44 296 14 97 -30 94
-15 -11 55 -39 26 -67 51 -64 56 5 9 -42 89 -52 89 -2 0 -4 -10 -4 -22z m-260
-339 c0 -24 -23 -21 -28 4 -2 10 3 17 12 17 10 0 16 -9 16 -21z"/>
<path d="M5160 6508 c0 -42 35 -118 53 -118 26 0 26 13 2 42 -13 16 -29 47
-35 68 -13 48 -20 51 -20 8z"/>
<path d="M5065 6418 c-10 -24 24 -88 46 -88 15 0 17 4 8 28 -5 15 -18 38 -29
52 -16 21 -20 23 -25 8z"/>
<path d="M5189 6168 l-1 -93 -10 65 c-5 36 -14 70 -20 75 -15 14 -3 -158 16
-215 l14 -45 2 60 c1 40 4 53 9 40 10 -25 23 133 14 175 -11 59 -23 29 -24
-62z"/>
<path d="M5292 6180 c5 -15 78 -44 78 -31 0 13 -23 29 -54 37 -21 5 -28 4 -24
-6z"/>
<path d="M5470 6143 c0 -10 59 -56 95 -73 72 -35 169 -17 222 42 l23 24 -113
-4 c-61 -2 -138 1 -169 6 -32 5 -58 7 -58 5z"/>
<path d="M5230 5960 c0 -11 4 -20 9 -20 5 0 7 9 4 20 -3 11 -7 20 -9 20 -2 0
-4 -9 -4 -20z"/>
<path d="M5890 5960 c0 -15 40 -32 58 -25 14 5 13 9 -8 20 -29 17 -50 19 -50
5z"/>
<path d="M5580 5910 c19 -17 54 -40 77 -50 39 -18 144 -42 151 -35 2 2 -21 11
-50 20 -29 10 -89 35 -133 57 l-80 39 35 -31z"/>
<path d="M4340 5921 c0 -12 39 -25 48 -16 7 7 -17 25 -35 25 -7 0 -13 -4 -13
-9z"/>
<path d="M4933 5903 c-18 -6 -16 -33 1 -33 19 0 31 19 20 30 -5 4 -15 5 -21 3z"/>
<path d="M6284 5802 c-23 -40 -100 -140 -229 -298 -95 -116 -129 -163 -123
-170 18 -17 306 331 350 423 33 70 35 102 2 45z"/>
<path d="M4751 5694 c-55 -62 -232 -334 -218 -334 6 0 105 127 127 162 l20 33
0 -33 c0 -113 218 -312 341 -312 52 0 124 35 150 73 52 76 79 96 154 112 89
20 130 45 152 90 l17 35 23 -27 c13 -16 50 -63 83 -106 33 -43 60 -71 60 -63
0 29 -182 307 -214 327 -39 24 -46 16 -13 -15 41 -38 35 -86 -14 -111 -39 -21
-76 -19 -110 5 l-28 21 -15 -30 c-20 -37 -67 -66 -140 -85 -59 -16 -102 -13
-147 10 -38 19 -52 40 -64 100 -6 30 -15 55 -20 56 -6 0 -22 -19 -36 -43 -20
-36 -31 -45 -58 -47 -75 -7 -92 63 -41 161 17 31 29 57 26 57 -2 0 -18 -16
-35 -36z"/>
<path d="M5788 5413 c7 -3 16 -2 19 1 4 3 -2 6 -13 5 -11 0 -14 -3 -6 -6z"/>
<path d="M6070 5335 c0 -8 9 -15 20 -15 24 0 27 15 4 24 -22 9 -24 8 -24 -9z"/>
<path d="M4878 5135 c-71 -19 -162 -29 -154 -16 5 7 -2 11 -18 11 -14 0 -28
-5 -31 -10 -11 -18 -86 -51 -116 -52 -24 -1 -27 -4 -18 -19 5 -10 27 -24 49
-30 37 -11 43 -10 81 16 46 30 45 30 414 29 55 0 179 0 276 1 155 0 179 -2
196 -17 11 -10 28 -18 39 -18 24 0 64 29 48 36 -6 2 -35 20 -64 39 -62 40 -63
40 -94 20 -22 -14 -32 -14 -119 4 -115 24 -410 28 -489 6z"/>
<path d="M4887 4962 c-22 -24 -21 -32 3 -32 11 0 30 -10 41 -21 l21 -21 -43
-40 c-42 -38 -41 -40 6 -22 15 5 10 -3 -15 -31 l-35 -38 68 37 c66 37 70 38
165 36 127 -2 125 -3 118 15 -8 21 22 19 86 -5 28 -11 53 -18 54 -17 7 7 -15
27 -60 54 l-49 31 52 17 c29 9 50 22 48 28 -4 13 -141 24 -328 26 -101 1 -118
-1 -132 -17z"/>
<path d="M5531 4896 c-8 -10 -9 -16 -1 -21 5 -3 13 1 16 10 9 22 -1 29 -15 11z"/>
<path d="M5565 4860 c-3 -5 -1 -10 4 -10 6 0 11 5 11 10 0 6 -2 10 -4 10 -3 0
-8 -4 -11 -10z"/>
<path d="M5685 4774 c-9 -14 -15 -27 -13 -30 8 -7 48 27 48 42 0 22 -16 17
-35 -12z"/>
<path d="M5535 4630 c3 -5 14 -10 23 -10 15 0 15 2 2 10 -20 13 -33 13 -25 0z"/>
<path d="M5230 4520 c0 -5 7 -10 16 -10 8 0 12 5 9 10 -3 6 -10 10 -16 10 -5
0 -9 -4 -9 -10z"/>
<path d="M7143 7326 c0 -8 6 -12 14 -9 7 3 10 9 7 14 -8 14 -21 11 -21 -5z"/>
<path d="M2821 3609 c-1 -19 25 -33 34 -19 4 6 0 10 -9 10 -8 0 -17 6 -19 13
-4 7 -6 6 -6 -4z"/>
<path d="M1481 3566 c9 -9 92 -13 122 -6 24 6 11 8 -47 9 -44 1 -77 -1 -75 -3z"/>
<path d="M2132 3549 c-32 -16 -46 -19 -54 -11 -8 8 -17 5 -32 -11 -17 -18 -45
-27 -124 -41 -115 -20 -118 -22 -167 -125 -27 -58 -31 -61 -57 -56 -26 6 -28
4 -28 -23 0 -16 -3 -43 -6 -59 -5 -26 -10 -29 -46 -32 -91 -5 -99 -50 -9 -52
39 -1 42 -2 16 -8 -39 -8 -38 -22 1 -41 l32 -15 16 -175 c25 -267 27 -275 86
-335 31 -31 50 -59 50 -73 0 -24 -6 -24 -59 -4 -25 9 0 -41 41 -82 l38 -39
138 6 c144 6 312 32 428 68 122 37 473 193 461 205 -2 2 -82 -27 -178 -64
-281 -112 -345 -129 -577 -158 -83 -10 -151 -13 -197 -8 -38 4 -65 9 -58 11 7
3 15 20 19 39 6 32 9 35 33 29 109 -28 290 -32 411 -9 162 30 355 118 553 252
121 81 162 102 202 102 14 0 25 5 25 10 0 6 -21 10 -46 10 -40 0 -61 -10 -165
-75 -257 -163 -435 -237 -619 -258 -78 -8 -116 -7 -208 6 -151 22 -162 28
-189 105 -12 34 -21 62 -20 62 16 0 122 -37 157 -55 47 -23 177 -38 215 -25
11 4 28 3 38 -2 13 -7 30 -4 60 10 27 13 71 22 123 24 89 5 142 25 209 80 21
18 48 32 60 31 15 -1 16 0 3 3 -21 6 -21 8 -8 54 15 49 40 226 40 282 0 51 0
51 78 63 42 7 62 26 62 59 0 10 -9 16 -25 16 -14 0 -25 -4 -25 -10 0 -15 -63
-12 -87 5 -18 13 -21 25 -21 88 0 55 -5 84 -21 115 -23 45 -34 50 -57 27 -19
-19 -34 -19 -34 -1 0 26 -29 37 -147 56 -65 10 -151 26 -191 34 -92 20 -89 20
-140 -5z m115 -50 c26 -10 27 -12 8 -19 -11 -5 -32 -9 -47 -9 -18 -1 -43 -16
-75 -46 -46 -44 -60 -55 -48 -35 9 15 0 12 -38 -10 -19 -12 -77 -31 -128 -44
-52 -13 -102 -27 -112 -31 -14 -6 -16 -4 -9 11 28 67 47 94 66 94 41 0 249 60
275 80 30 22 67 25 108 9z m198 -40 c13 -6 5 -6 -20 -2 -22 3 -49 10 -60 14
-13 6 -5 6 20 2 22 -3 49 -10 60 -14z m122 -24 c9 -26 -4 -29 -33 -6 l-27 21
27 0 c15 0 29 -7 33 -15z m-132 -34 c22 -10 47 -26 55 -36 14 -17 13 -18 -10
-12 -14 4 -61 14 -105 22 -127 25 -128 26 -119 35 24 23 115 18 179 -9z m223
-68 c-3 -40 -6 -48 -25 -51 -24 -4 -53 31 -53 64 0 25 12 32 53 33 27 1 28 0
25 -46z m-460 7 l30 -30 -51 0 c-29 0 -63 -3 -77 -6 -23 -6 -23 -5 5 13 17 11
36 27 44 36 17 21 14 22 49 -13z m-228 -61 c-92 -33 -108 -37 -115 -31 -7 8
119 50 150 50 11 0 -5 -8 -35 -19z m548 -13 c3 -24 1 -28 -15 -21 -47 19 -91
17 -112 -4 -25 -25 -31 -26 -31 -5 0 19 95 64 130 61 20 -2 26 -8 28 -31z
m-413 -41 c90 -16 115 -31 115 -66 0 -10 5 -21 11 -25 8 -5 9 6 4 35 -6 39 -6
41 20 41 43 0 65 -17 65 -50 0 -31 -8 -36 -80 -44 -19 -2 -70 -9 -113 -16 -44
-6 -81 -10 -83 -8 -1 2 -6 23 -10 46 -6 40 -6 42 20 42 28 0 31 -6 17 -43
l-10 -24 39 18 c34 17 60 44 60 63 0 3 -23 6 -52 6 -58 0 -160 29 -151 43 3 5
17 7 32 4 14 -3 67 -13 116 -22z m-295 -20 c21 -11 30 -23 30 -40 0 -14 5 -25
12 -25 6 0 9 -2 6 -6 -3 -3 -35 3 -72 13 -55 14 -66 21 -66 38 0 12 3 25 7 28
11 12 53 8 83 -8z m869 -11 c2 -2 -4 -6 -13 -10 -20 -8 -86 4 -86 15 0 8 90 3
99 -5z m-751 -14 c2 0 0 -4 -3 -10 -3 -5 0 -7 8 -4 19 7 25 -3 32 -59 l7 -46
-54 16 c-95 28 -107 33 -65 27 34 -4 37 -3 37 18 0 19 -2 20 -10 8 -8 -12 -10
-12 -10 5 0 11 -3 30 -6 42 -6 21 -4 22 27 13 19 -6 35 -10 37 -10z m632 11
c0 -5 -8 -17 -17 -27 -17 -17 -18 -17 -21 1 -2 9 2 21 10 26 17 11 28 11 28 0z
m-86 -41 c-37 -24 -94 -37 -94 -22 0 6 21 18 48 26 66 20 82 19 46 -4z m161
-180 c10 -31 24 -23 30 18 12 67 15 59 10 -23 -6 -103 -14 -145 -29 -140 -6 3
-20 -10 -31 -28 -12 -18 -43 -43 -76 -60 -52 -26 -75 -32 -119 -26 -8 1 -25
-1 -36 -5 -21 -7 -22 -6 -5 27 l16 34 39 -13 c51 -18 60 -18 51 4 -4 9 -9 33
-11 53 -2 20 -4 41 -5 45 -8 48 4 78 49 122 27 26 59 67 73 91 l24 44 7 -62
c4 -34 10 -71 13 -81z m-315 90 c0 -5 -21 -10 -46 -10 -25 0 -53 -4 -62 -8 -9
-5 -33 -5 -52 -2 l-35 6 45 7 c117 18 150 19 150 7z m210 2 c0 -19 -38 -41
-92 -55 -32 -8 -58 -13 -58 -10 0 11 56 49 89 60 44 14 61 16 61 5z m-704 -47
c4 -42 43 -72 103 -80 50 -7 51 -7 51 -42 l0 -35 -32 19 c-18 11 -34 24 -34
31 -1 7 -2 15 -3 18 -3 15 -54 -61 -61 -91 -10 -46 4 -53 26 -15 19 32 35 33
81 3 19 -13 49 -81 39 -90 -4 -5 -129 39 -152 54 -12 8 -27 34 -34 59 -13 46
-44 94 -61 94 -15 0 -10 -25 16 -82 15 -32 21 -54 14 -57 -6 -2 -15 1 -21 7
-13 13 -37 141 -37 197 0 38 0 39 15 20 9 -11 24 -38 35 -60 14 -32 19 -36 25
-22 3 10 4 38 0 63 -5 39 -3 45 10 42 10 -2 18 -15 20 -33z m91 -12 c8 -10 12
-12 8 -5 -5 10 0 11 22 6 36 -9 39 -12 26 -25 -11 -11 -75 10 -87 30 -12 18
16 12 31 -6z m374 -117 c-6 -35 -11 -92 -11 -129 0 -36 -4 -69 -10 -72 -6 -4
-10 15 -10 50 0 51 -2 56 -17 50 -42 -18 -76 -18 -90 1 -21 29 -16 54 10 54
34 0 67 28 67 56 0 13 -4 24 -10 24 -5 0 -10 -5 -10 -10 0 -11 -41 -30 -51
-24 -3 2 -3 22 0 46 l6 43 65 5 c76 6 78 4 61 -94z m-183 -14 c0 -63 4 -117
11 -130 14 -26 0 -37 -28 -22 -21 11 -26 36 -35 178 l-5 82 29 0 29 0 -1 -108z
m333 16 c-3 -80 -15 -108 -38 -86 -17 18 -6 133 15 154 22 22 25 11 23 -68z
m-213 -210 c-22 -14 -72 -5 -76 15 -3 13 3 17 27 17 21 0 34 7 43 23 13 21 13
21 16 -12 2 -20 -2 -37 -10 -43z m-421 -18 c5 -25 14 -54 18 -65 8 -18 7 -19
-9 -6 -30 25 -54 65 -61 103 -7 37 -7 37 17 26 18 -9 28 -25 35 -58z"/>
<path d="M1950 3550 c0 -5 7 -10 15 -10 8 0 15 5 15 10 0 6 -7 10 -15 10 -8 0
-15 -4 -15 -10z"/>
<path d="M1587 3414 c-4 -4 -7 -18 -7 -31 0 -16 6 -23 20 -23 23 0 24 6 7 38
-7 12 -16 19 -20 16z"/>
<path d="M1722 3368 c-7 -7 -12 -21 -12 -32 1 -20 1 -20 20 3 29 34 22 59 -8
29z"/>
<path d="M3018 3328 c9 -9 15 -9 24 0 9 9 7 12 -12 12 -19 0 -21 -3 -12 -12z"/>
<path d="M3045 3281 c-3 -5 -1 -12 5 -16 12 -7 30 2 30 16 0 12 -27 12 -35 0z"/>
<path d="M2925 3081 c-6 -11 9 -23 19 -14 9 9 7 23 -3 23 -6 0 -12 -4 -16 -9z"/>
<path d="M1448 3063 c7 -3 16 -2 19 1 4 3 -2 6 -13 5 -11 0 -14 -3 -6 -6z"/>
<path d="M3000 2894 c-42 -31 -46 -34 -34 -34 5 0 25 13 44 30 42 35 38 37
-10 4z"/>
<path d="M2835 2889 c-27 -10 -42 -18 -32 -19 20 0 87 26 87 34 0 4 -1 5 -2 5
-2 -1 -25 -10 -53 -20z"/>
<path d="M1440 2706 c0 -18 38 -46 63 -46 14 0 10 7 -16 30 -39 34 -47 36 -47
16z"/>
<path d="M2925 2670 c-3 -6 1 -7 9 -4 18 7 21 14 7 14 -6 0 -13 -4 -16 -10z"/>
<path d="M1672 2518 c3 -7 13 -15 24 -17 16 -3 17 -1 5 13 -16 19 -34 21 -29
4z"/>
<path d="M3060 2446 c0 -9 7 -16 16 -16 17 0 14 22 -4 28 -7 2 -12 -3 -12 -12z"/>
<path d="M2970 2420 c0 -5 5 -10 10 -10 6 0 10 5 10 10 0 6 -4 10 -10 10 -5 0
-10 -4 -10 -10z"/>
<path d="M2646 2381 c-5 -13 -4 -27 2 -33 11 -11 32 -3 32 13 0 6 -4 8 -9 4
-5 -3 -11 5 -13 17 l-4 23 -8 -24z"/>
<path d="M1490 2372 c0 -10 18 -30 40 -45 43 -28 43 -23 1 30 -29 37 -41 41
-41 15z"/>
<path d="M2745 2307 c-33 -7 -66 -16 -73 -21 -19 -12 -3 -28 23 -22 20 5 23 1
29 -32 9 -57 7 -97 -6 -110 -21 -21 2 -26 68 -15 78 14 111 33 129 77 26 61
-11 120 -80 130 -16 3 -57 -1 -90 -7z m97 -44 c39 -35 17 -100 -39 -117 -22
-7 -23 -5 -23 63 0 66 1 71 22 71 12 0 30 -7 40 -17z"/>
<path d="M2503 2291 c-51 -9 -53 -10 -42 -36 l8 -20 1 20 c4 33 17 -34 19 -89
1 -33 -4 -55 -16 -68 -15 -17 -15 -18 12 -18 16 0 57 5 92 11 48 8 68 17 83
36 38 49 16 154 -34 167 -26 7 -67 6 -123 -3z m107 -50 c14 -27 13 -86 -3 -99
-6 -6 -24 -13 -40 -17 l-27 -7 0 71 0 71 30 0 c19 0 33 -7 40 -19z"/>
<path d="M1618 2273 c6 -2 18 -2 25 0 6 3 1 5 -13 5 -14 0 -19 -2 -12 -5z"/>
<path d="M1670 2272 c0 -47 100 -130 141 -117 26 9 24 22 -6 29 -26 7 -63 52
-51 63 4 4 26 2 49 -4 49 -13 58 -9 34 15 -20 20 -167 32 -167 14z"/>
<path d="M2205 2273 c-52 -9 -65 -14 -65 -23 0 -6 7 -10 15 -10 12 0 15 -13
15 -55 0 -30 -2 -55 -3 -55 -7 0 -77 107 -77 117 0 16 -37 23 -133 23 l-88 0
16 -30 c9 -17 15 -55 15 -95 l0 -66 -67 3 c-64 3 -67 4 -74 31 -8 29 -34 56
-55 57 -20 0 -26 -50 -9 -76 21 -32 65 -41 243 -48 l153 -7 -5 23 c-3 13 -8
40 -11 60 l-6 37 60 -59 c33 -33 66 -60 74 -60 11 0 15 24 20 118 2 64 4 117
3 118 0 0 -10 -1 -21 -3z m-182 -110 c2 -43 3 -81 1 -84 -1 -3 -19 -3 -38 -1
l-36 4 0 79 0 79 34 0 33 0 6 -77z"/>
<path d="M2279 2241 c-31 -31 -39 -83 -19 -122 27 -50 130 -66 168 -26 17 18
22 36 22 80 0 76 -20 97 -91 97 -43 0 -55 -5 -80 -29z m101 -16 c19 -23 18
-92 -2 -111 -16 -16 -18 -16 -42 0 -21 13 -26 24 -26 59 0 61 39 90 70 52z"/>
<path d="M1480 2243 c0 -6 28 -13 61 -16 35 -3 65 -11 70 -19 6 -9 9 -7 9 10
0 18 -5 22 -32 22 -18 0 -50 3 -70 6 -23 4 -38 3 -38 -3z"/>
<path d="M1440 2150 c0 -6 7 -10 15 -10 8 0 15 2 15 4 0 2 -7 6 -15 10 -8 3
-15 1 -15 -4z"/>
<path d="M2933 2077 l-102 -22 7 -30 c4 -16 7 -47 7 -68 -1 -28 3 -36 13 -32
7 3 22 5 33 5 17 0 18 3 7 20 -11 17 -10 22 2 30 13 9 13 12 -2 21 -36 21 -15
49 39 53 17 1 23 -5 28 -34 3 -19 8 -43 11 -52 4 -14 -1 -18 -20 -18 -14 0
-26 -5 -26 -11 0 -9 21 -10 72 -5 92 8 120 16 115 30 -4 12 -17 12 -71 2 l-33
-6 -7 46 c-3 26 -5 49 -3 50 2 2 21 5 42 6 28 3 41 8 43 21 4 22 -22 21 -155
-6z"/>
<path d="M1593 2029 c-7 -17 -7 -31 -2 -35 9 -5 4 -58 -7 -76 -9 -13 25 -21
40 -9 10 8 16 8 26 -4 16 -20 113 -21 129 -1 9 11 7 20 -12 40 -13 14 -32 26
-41 26 -9 0 -16 7 -16 15 0 8 4 15 9 15 5 0 16 -7 25 -15 20 -20 38 -19 34 2
-3 17 -25 27 -124 55 l-51 15 -10 -28z m8 -22 c-10 -9 -11 -8 -5 6 3 10 9 15
12 12 3 -3 0 -11 -7 -18z m69 -10 c0 -12 4 -28 9 -36 17 -26 2 -41 -27 -28
-44 19 -48 40 -14 79 18 21 32 15 32 -15z m80 -67 c11 -7 12 -12 3 -21 -14
-14 -53 -2 -53 17 0 16 28 18 50 4z"/>
<path d="M2747 2043 c-13 -3 -17 -11 -13 -26 3 -12 8 -41 12 -64 4 -30 10 -40
20 -36 8 3 14 15 15 27 0 21 0 21 9 -1 5 -13 16 -23 25 -23 19 0 19 14 0 30
-9 7 -14 19 -11 26 2 6 -4 14 -15 17 -10 3 -19 13 -19 22 0 12 5 15 20 10 14
-5 20 -2 20 9 0 16 -24 19 -63 9z"/>
<path d="M2657 2033 c-20 -2 -35 -8 -33 -12 3 -4 6 -33 7 -64 2 -50 5 -57 23
-57 33 0 66 11 66 22 0 6 -11 7 -25 4 -20 -5 -25 -3 -25 14 0 11 7 20 16 20 8
0 12 5 9 10 -4 6 -11 8 -17 4 -6 -4 -8 3 -6 17 2 16 10 24 22 24 11 0 21 6 23
13 3 6 -1 11 -9 10 -7 -1 -30 -3 -51 -5z"/>
<path d="M2537 2014 c-1 -1 0 -30 1 -64 l4 -61 31 3 c18 2 30 8 27 13 -3 6
-11 9 -17 9 -19 -2 -16 23 3 34 15 8 15 10 0 15 -21 8 -20 33 2 46 14 9 11 10
-16 9 -18 -1 -34 -3 -35 -4z"/>
<path d="M1805 1965 c-4 -22 -2 -52 4 -67 9 -25 16 -28 56 -28 50 0 85 25 85
60 0 25 -42 70 -67 71 -10 0 -30 2 -45 3 -25 1 -28 -2 -33 -39z m86 5 c39 -21
13 -89 -29 -75 -24 7 -32 33 -21 63 9 24 21 27 50 12z"/>
<path d="M2307 2003 c-15 -4 -18 -14 -15 -64 l3 -59 38 0 c43 0 47 7 12 20
-19 7 -25 17 -25 39 0 15 7 34 15 41 29 24 17 35 -28 23z"/>
<path d="M2415 1976 c-31 -31 -32 -50 0 -81 26 -27 46 -31 76 -15 28 16 23 32
-6 18 -32 -14 -55 4 -55 43 0 33 28 53 51 38 9 -7 10 -12 3 -15 -25 -11 -48
-33 -42 -40 5 -4 19 -2 34 4 20 10 25 18 22 40 -4 38 -48 43 -83 8z"/>
<path d="M1545 1980 c3 -5 10 -10 16 -10 5 0 9 5 9 10 0 6 -7 10 -16 10 -8 0
-12 -4 -9 -10z"/>
<path d="M1980 1930 c0 -49 3 -61 20 -70 18 -10 20 -8 20 20 0 37 6 37 36 5
26 -29 42 -32 50 -10 8 19 -40 65 -67 65 -11 0 -19 7 -19 16 0 13 7 15 30 11
22 -5 30 -3 30 8 0 11 -13 15 -50 15 l-50 0 0 -60z"/>
<path d="M2120 1980 c0 -5 7 -10 15 -10 11 0 15 -12 15 -50 l0 -50 61 0 c52 0
60 2 57 17 -3 14 -12 17 -52 14 l-49 -3 6 46 c7 46 6 46 -23 46 -17 0 -30 -4
-30 -10z"/>
<path d="M2358 1849 c-19 -11 -24 -29 -8 -29 5 0 14 9 20 20 12 23 12 23 -12
9z"/>
<path d="M2256 1825 c-6 -17 29 -45 56 -45 24 0 23 12 -5 38 -27 26 -43 28
-51 7z"/>
<path d="M2060 1810 c0 -5 5 -10 10 -10 6 0 10 5 10 10 0 6 -4 10 -10 10 -5 0
-10 -4 -10 -10z"/>
<path d="M2160 1800 c10 -19 40 -28 40 -12 0 13 -23 32 -37 32 -11 0 -11 -5
-3 -20z"/>
<path d="M2576 1803 c-11 -11 -6 -23 9 -23 8 0 15 4 15 9 0 13 -16 22 -24 14z"/>
<path d="M2088 1703 c7 -3 16 -2 19 1 4 3 -2 6 -13 5 -11 0 -14 -3 -6 -6z"/>
<path d="M3410 3376 c0 -17 5 -26 16 -26 10 0 14 7 12 22 -5 32 -28 35 -28 4z"/>
<path d="M3470 3346 c0 -21 17 -29 27 -13 4 8 15 17 23 20 8 3 0 6 -17 6 -22
1 -33 -4 -33 -13z"/>
<path d="M3560 3010 c0 -5 5 -10 11 -10 5 0 7 5 4 10 -3 6 -8 10 -11 10 -2 0
-4 -4 -4 -10z"/>
<path d="M3510 2778 c-57 -21 -84 -38 -61 -38 14 0 121 49 121 56 0 5 4 6 -60
-18z"/>
<path d="M3570 2590 c0 -5 5 -10 10 -10 6 0 10 5 10 10 0 6 -4 10 -10 10 -5 0
-10 -4 -10 -10z"/>
<path d="M3525 2430 c-4 -6 5 -10 20 -10 15 0 24 4 20 10 -3 6 -12 10 -20 10
-8 0 -17 -4 -20 -10z"/>
<path d="M3608 1933 c7 -3 16 -2 19 1 4 3 -2 6 -13 5 -11 0 -14 -3 -6 -6z"/>
<path d="M3446 1762 c-3 -6 -1 -14 5 -17 15 -10 25 3 12 16 -7 7 -13 7 -17 1z"/>
<path d="M8475 2750 c-3 -5 -1 -10 4 -10 6 0 11 5 11 10 0 6 -2 10 -4 10 -3 0
-8 -4 -11 -10z"/>
<path d="M8340 2645 c-7 -9 -11 -18 -8 -20 9 -10 38 7 38 21 0 18 -14 18 -30
-1z"/>
<path d="M8305 2549 c-4 -6 -5 -12 -2 -15 2 -3 7 2 10 11 7 17 1 20 -8 4z"/>
<path d="M7870 2040 c0 -5 5 -10 10 -10 6 0 10 5 10 10 0 6 -4 10 -10 10 -5 0
-10 -4 -10 -10z"/>
<path d="M7359 1690 c-13 -10 -21 -19 -18 -20 16 -1 69 23 69 31 0 15 -27 10
-51 -11z"/>
<path d="M7245 1560 c-3 -5 -1 -10 4 -10 6 0 11 5 11 10 0 6 -2 10 -4 10 -3 0
-8 -4 -11 -10z"/>
<path d="M3624 1372 c4 -6 2 -22 -4 -34 -11 -22 -10 -22 4 -4 19 24 20 32 4
42 -7 4 -8 3 -4 -4z"/>
<path d="M3577 1270 c3 -11 7 -20 9 -20 2 0 4 9 4 20 0 11 -4 20 -9 20 -5 0
-7 -9 -4 -20z"/>
<path d="M6270 1145 c0 -8 7 -15 16 -15 14 0 14 3 4 15 -7 8 -14 15 -16 15 -2
0 -4 -7 -4 -15z"/>
<path d="M4268 1123 c7 -3 16 -2 19 1 4 3 -2 6 -13 5 -11 0 -14 -3 -6 -6z"/>
<path d="M5768 1093 c7 -3 16 -2 19 1 4 3 -2 6 -13 5 -11 0 -14 -3 -6 -6z"/>
<path d="M4430 1040 c0 -5 5 -10 11 -10 5 0 7 5 4 10 -3 6 -8 10 -11 10 -2 0
-4 -4 -4 -10z"/>
<path d="M4928 1035 c-7 -7 14 -85 23 -85 9 0 0 71 -10 83 -4 4 -10 5 -13 2z"/>
<path d="M5150 1021 c0 -12 40 -41 57 -41 23 0 14 19 -17 35 -34 18 -40 18
-40 6z"/>
<path d="M4620 1010 c0 -8 5 -22 10 -30 9 -13 10 -13 10 0 0 8 -5 22 -10 30
-9 13 -10 13 -10 0z"/>
<path d="M7260 1945 c-7 -9 -10 -18 -7 -22 8 -7 37 15 37 28 0 14 -16 11 -30
-6z"/>
<path d="M7104 1834 c-18 -14 -18 -15 6 -8 31 8 50 24 29 24 -8 0 -24 -7 -35
-16z"/>
<path d="M7012 1768 c-14 -14 -16 -28 -2 -28 5 0 14 9 20 20 12 22 1 27 -18 8z"/>
<path d="M6183 1395 c-18 -8 -33 -16 -33 -19 0 -6 51 14 65 26 13 11 5 10 -32
-7z"/>
<path d="M5722 1328 c-17 -17 -15 -28 6 -27 12 0 13 2 3 6 -11 4 -11 7 0 14 7
4 11 10 8 13 -3 3 -11 0 -17 -6z"/>
<path d="M5030 2648 c0 -7 -9 -89 -19 -183 -11 -93 -17 -172 -14 -175 16 -17
31 48 43 182 7 84 17 161 22 171 7 13 5 17 -12 17 -11 0 -20 -6 -20 -12z"/>
<path d="M5150 2617 c0 -13 -6 -29 -12 -35 -15 -12 -12 -112 3 -112 23 0 44
159 22 167 -8 3 -13 -5 -13 -20z"/>
<path d="M4819 2212 c-35 -27 -70 -56 -78 -65 -17 -21 -7 -25 69 -29 l54 -3
48 63 c26 35 48 67 48 73 0 5 -17 9 -39 9 -30 0 -51 -10 -102 -48z"/>
<path d="M4707 2083 c-17 -16 -5 -33 23 -33 32 0 37 9 18 28 -13 13 -31 16
-41 5z"/>
<path d="M4730 1896 c0 -8 5 -18 10 -21 6 -3 10 3 10 14 0 12 -4 21 -10 21 -5
0 -10 -6 -10 -14z"/>
<path d="M4475 2050 c3 -5 11 -10 16 -10 6 0 7 5 4 10 -3 6 -11 10 -16 10 -6
0 -7 -4 -4 -10z"/>
<path d="M4527 1953 c-26 -26 14 -82 49 -69 20 8 18 19 -9 49 -24 28 -29 31
-40 20z"/>
<path d="M4550 1790 c0 -5 7 -10 15 -10 8 0 15 5 15 10 0 6 -7 10 -15 10 -8 0
-15 -4 -15 -10z"/>
<path d="M4200 1461 c0 -5 6 -11 13 -14 6 -2 -2 -6 -20 -9 -19 -3 -31 0 -30 6
1 6 -7 11 -18 11 -11 0 -20 -7 -20 -15 0 -10 19 -20 58 -29 32 -7 60 -11 62
-9 7 7 -25 68 -36 68 -5 0 -9 -4 -9 -9z"/>
</g>
</svg>
